<?xml version="1.0" encoding="UTF-8" standalone="no"?>
<!DOCTYPE svg PUBLIC "-//W3C//DTD SVG 1.1//EN"
 "http://www.w3.org/Graphics/SVG/1.1/DTD/svg11.dtd">
<!-- Generated by graphviz version 2.47.1 (20210417.1919)
 -->
<!-- Pages: 1 -->
<svg width="1980pt" height="1741pt"
 viewBox="0.00 0.00 1980.05 1740.77" xmlns="http://www.w3.org/2000/svg" xmlns:xlink="http://www.w3.org/1999/xlink">
<g id="graph0" class="graph" transform="scale(1 1) rotate(0) translate(4 1736.77)">
<polygon fill="white" stroke="transparent" points="-4,4 -4,-1736.77 1976.05,-1736.77 1976.05,4 -4,4"/>
<!-- ionity -->
<g id="node1" class="node">
<title>ionity</title>
<polygon fill="none" stroke="black" points="1111.23,-1357.8 1048.23,-1357.8 1048.23,-1321.8 1111.23,-1321.8 1111.23,-1357.8"/>
<text text-anchor="middle" x="1079.73" y="-1336.1" font-family="Times,serif" font-size="14.00">IONITY</text>
</g>
<!-- se_ion -->
<g id="node17" class="node">
<title>se_ion</title>
<text text-anchor="middle" x="1279.21" y="-1420.73" font-family="Times,serif" font-size="14.00">SE*ION</text>
</g>
<!-- ionity&#45;&gt;se_ion -->
<g id="edge8" class="edge">
<title>ionity&#45;&gt;se_ion</title>
<path fill="none" stroke="black" d="M1111.34,-1353.21C1150.1,-1369.65 1215.16,-1397.25 1251.87,-1412.82"/>
<polygon fill="black" stroke="black" points="1250.85,-1416.19 1261.42,-1416.88 1253.58,-1409.75 1250.85,-1416.19"/>
</g>
<!-- recharge -->
<g id="node2" class="node">
<title>recharge</title>
<polygon fill="none" stroke="black" points="1399.12,-916.07 1328.12,-916.07 1328.12,-880.07 1399.12,-880.07 1399.12,-916.07"/>
<text text-anchor="middle" x="1363.62" y="-894.37" font-family="Times,serif" font-size="14.00">ReCharge</text>
</g>
<!-- se_cha -->
<g id="node11" class="node">
<title>se_cha</title>
<text text-anchor="middle" x="1439.46" y="-372.66" font-family="Times,serif" font-size="14.00">SE*CHA</text>
</g>
<!-- recharge&#45;&gt;se_cha -->
<g id="edge1" class="edge">
<title>recharge&#45;&gt;se_cha</title>
<path fill="none" stroke="black" d="M1366.27,-879.8C1378.02,-799.01 1425.25,-474.16 1436.87,-394.21"/>
<polygon fill="black" stroke="black" points="1440.39,-394.3 1438.37,-383.9 1433.46,-393.29 1440.39,-394.3"/>
</g>
<!-- incharge -->
<g id="node3" class="node">
<title>incharge</title>
<polygon fill="none" stroke="black" points="1806.5,-1558.07 1739.5,-1558.07 1739.5,-1522.07 1806.5,-1522.07 1806.5,-1558.07"/>
<text text-anchor="middle" x="1773" y="-1536.37" font-family="Times,serif" font-size="14.00">InCharge</text>
</g>
<!-- se_vat -->
<g id="node12" class="node">
<title>se_vat</title>
<text text-anchor="middle" x="1948.05" y="-1536.37" font-family="Times,serif" font-size="14.00">SE*VAT</text>
</g>
<!-- incharge&#45;&gt;se_vat -->
<g id="edge2" class="edge">
<title>incharge&#45;&gt;se_vat</title>
<path fill="none" stroke="black" d="M1806.75,-1540.07C1837.5,-1540.07 1882.71,-1540.07 1913.65,-1540.07"/>
<polygon fill="black" stroke="black" points="1913.96,-1543.57 1923.96,-1540.07 1913.96,-1536.57 1913.96,-1543.57"/>
</g>
<!-- eon -->
<g id="node4" class="node">
<title>eon</title>
<polygon fill="lightgreen" stroke="black" points="191.63,-424.02 137.63,-424.02 137.63,-388.02 191.63,-388.02 191.63,-424.02"/>
<text text-anchor="middle" x="164.63" y="-402.32" font-family="Times,serif" font-size="14.00">E.ON</text>
</g>
<!-- virta -->
<g id="node10" class="node">
<title>virta</title>
<polygon fill="none" stroke="black" points="586.99,-549.06 532.99,-549.06 532.99,-513.06 586.99,-513.06 586.99,-549.06"/>
<text text-anchor="middle" x="559.99" y="-527.36" font-family="Times,serif" font-size="14.00">Virta</text>
</g>
<!-- eon&#45;&gt;virta -->
<g id="edge22" class="edge">
<title>eon&#45;&gt;virta</title>
<path fill="none" stroke="black" d="M191.8,-414.61C261.01,-436.5 444,-494.38 522.91,-519.34"/>
<polygon fill="black" stroke="black" points="522.3,-522.81 532.89,-522.49 524.41,-516.14 522.3,-522.81"/>
</g>
<!-- se_edr -->
<g id="node13" class="node">
<title>se_edr</title>
<text text-anchor="middle" x="48.8" y="-570.24" font-family="Times,serif" font-size="14.00">SE*EDR</text>
</g>
<!-- eon&#45;&gt;se_edr -->
<g id="edge3" class="edge">
<title>eon&#45;&gt;se_edr</title>
<path fill="none" stroke="black" d="M152.01,-424.31C129.27,-457.28 81.75,-526.17 60.04,-557.64"/>
<polygon fill="black" stroke="black" points="56.99,-555.9 54.19,-566.12 62.75,-559.88 56.99,-555.9"/>
</g>
<!-- mer -->
<g id="node5" class="node">
<title>mer</title>
<polygon fill="none" stroke="black" points="586.99,-1283.07 532.99,-1283.07 532.99,-1247.07 586.99,-1247.07 586.99,-1283.07"/>
<text text-anchor="middle" x="559.99" y="-1261.37" font-family="Times,serif" font-size="14.00">MER </text>
</g>
<!-- se_mer -->
<g id="node15" class="node">
<title>se_mer</title>
<text text-anchor="middle" x="647.77" y="-1520.06" font-family="Times,serif" font-size="14.00">SE*MER</text>
</g>
<!-- mer&#45;&gt;se_mer -->
<g id="edge5" class="edge">
<title>mer&#45;&gt;se_mer</title>
<path fill="none" stroke="black" d="M566.17,-1283.26C582.35,-1330.96 625.86,-1459.2 641.81,-1506.19"/>
<polygon fill="black" stroke="black" points="638.56,-1507.5 645.08,-1515.84 645.18,-1505.25 638.56,-1507.5"/>
</g>
<!-- se_cle -->
<g id="node16" class="node">
<title>se_cle</title>
<text text-anchor="middle" x="536.9" y="-1467.21" font-family="Times,serif" font-size="14.00">SE*CLE</text>
</g>
<!-- mer&#45;&gt;se_cle -->
<g id="edge6" class="edge">
<title>mer&#45;&gt;se_cle</title>
<path fill="none" stroke="black" d="M557.94,-1283.34C553.54,-1322.57 543.23,-1414.46 538.89,-1453.2"/>
<polygon fill="black" stroke="black" points="535.38,-1453.07 537.74,-1463.39 542.33,-1453.85 535.38,-1453.07"/>
</g>
<!-- tesla -->
<g id="node6" class="node">
<title>tesla</title>
<polygon fill="lightblue" stroke="black" points="1044,-756.07 990,-756.07 990,-720.07 1044,-720.07 1044,-756.07"/>
<text text-anchor="middle" x="1017" y="-734.37" font-family="Times,serif" font-size="14.00">Tesla</text>
</g>
<!-- fortum -->
<g id="node7" class="node">
<title>fortum</title>
<polygon fill="lightgreen" stroke="black" points="1589.01,-614.27 1440.01,-614.27 1440.01,-578.27 1589.01,-578.27 1589.01,-614.27"/>
<text text-anchor="middle" x="1514.51" y="-592.57" font-family="Times,serif" font-size="14.00">Fortum Charge &amp; Drive</text>
</g>
<!-- fortum&#45;&gt;recharge -->
<g id="edge25" class="edge">
<title>fortum&#45;&gt;recharge</title>
<path fill="none" stroke="black" d="M1505.3,-614.7C1479.67,-665.96 1407.42,-810.46 1377.18,-870.93"/>
<polygon fill="black" stroke="black" points="1374.05,-869.37 1372.71,-879.88 1380.31,-872.5 1374.05,-869.37"/>
</g>
<!-- se_cnd -->
<g id="node14" class="node">
<title>se_cnd</title>
<text text-anchor="middle" x="1670.38" y="-518.67" font-family="Times,serif" font-size="14.00">SE*CND</text>
</g>
<!-- fortum&#45;&gt;se_cnd -->
<g id="edge4" class="edge">
<title>fortum&#45;&gt;se_cnd</title>
<path fill="none" stroke="black" d="M1552.64,-578.2C1581.44,-564.54 1620.16,-546.18 1645.19,-534.31"/>
<polygon fill="black" stroke="black" points="1646.85,-537.4 1654.38,-529.95 1643.85,-531.08 1646.85,-537.4"/>
</g>
<!-- ufc -->
<g id="node8" class="node">
<title>ufc</title>
<polygon fill="none" stroke="black" points="290.6,-305.89 201.6,-305.89 201.6,-269.89 290.6,-269.89 290.6,-305.89"/>
<text text-anchor="middle" x="246.1" y="-284.19" font-family="Times,serif" font-size="14.00">UFC Sweden</text>
</g>
<!-- ufc&#45;&gt;eon -->
<g id="edge10" class="edge">
<title>ufc&#45;&gt;eon</title>
<path fill="none" stroke="black" d="M233.55,-306.09C219.99,-325.74 198.27,-357.24 182.84,-379.61"/>
<polygon fill="black" stroke="black" points="179.86,-377.77 177.06,-387.99 185.62,-381.75 179.86,-377.77"/>
</g>
<!-- se_ufc -->
<g id="node18" class="node">
<title>se_ufc</title>
<text text-anchor="middle" x="326.16" y="-168.12" font-family="Times,serif" font-size="14.00">SE*UFC</text>
</g>
<!-- ufc&#45;&gt;se_ufc -->
<g id="edge7" class="edge">
<title>ufc&#45;&gt;se_ufc</title>
<path fill="none" stroke="black" d="M258.61,-269.75C274.17,-247.21 300.46,-209.08 315.24,-187.66"/>
<polygon fill="black" stroke="black" points="318.17,-189.57 320.97,-179.35 312.41,-185.59 318.17,-189.57"/>
</g>
<!-- circlek -->
<g id="node9" class="node">
<title>circlek</title>
<polygon fill="yellow" stroke="black" points="870,-936.07 810,-936.07 810,-900.07 870,-900.07 870,-936.07"/>
<text text-anchor="middle" x="840" y="-914.37" font-family="Times,serif" font-size="14.00">CirkleK</text>
</g>
<!-- fi_001 -->
<g id="node19" class="node">
<title>fi_001</title>
<text text-anchor="middle" x="20" y="-772.5" font-family="Times,serif" font-size="14.00">FI*001</text>
</g>
<!-- virta&#45;&gt;fi_001 -->
<g id="edge9" class="edge">
<title>virta&#45;&gt;fi_001</title>
<path fill="none" stroke="black" d="M532.84,-543.39C440.18,-585.45 137.11,-723.03 46.08,-764.36"/>
<polygon fill="black" stroke="black" points="44.42,-761.27 36.76,-768.59 47.32,-767.64 44.42,-761.27"/>
</g>
<!-- charge4go -->
<g id="node20" class="node">
<title>charge4go</title>
<polygon fill="none" stroke="black" points="867.97,-417.4 838.43,-435.4 779.35,-435.4 749.81,-417.4 779.35,-399.4 838.43,-399.4 867.97,-417.4"/>
<text text-anchor="middle" x="808.89" y="-413.7" font-family="Times,serif" font-size="14.00">Charge4Go</text>
</g>
<!-- charge4go&#45;&gt;ionity -->
<g id="edge16" class="edge">
<title>charge4go&#45;&gt;ionity</title>
<path fill="none" stroke="black" d="M814.18,-435.41C847.68,-549.51 1030.32,-1171.49 1071.49,-1311.71"/>
<polygon fill="black" stroke="black" points="1068.23,-1313.06 1074.41,-1321.67 1074.95,-1311.09 1068.23,-1313.06"/>
</g>
<!-- charge4go&#45;&gt;virta -->
<g id="edge17" class="edge">
<title>charge4go&#45;&gt;virta</title>
<path fill="none" stroke="black" d="M775.07,-432.84C728.34,-454.18 644.38,-492.53 596.35,-514.46"/>
<polygon fill="black" stroke="black" points="594.88,-511.28 587.24,-518.62 597.79,-517.65 594.88,-511.28"/>
</g>
<!-- plugsurfing -->
<g id="node21" class="node">
<title>plugsurfing</title>
<polygon fill="none" stroke="black" points="867.97,-1378.74 838.43,-1396.74 779.35,-1396.74 749.81,-1378.74 779.35,-1360.74 838.43,-1360.74 867.97,-1378.74"/>
<text text-anchor="middle" x="808.89" y="-1375.04" font-family="Times,serif" font-size="14.00">Plugsurfing</text>
</g>
<!-- plugsurfing&#45;&gt;ionity -->
<g id="edge13" class="edge">
<title>plugsurfing&#45;&gt;ionity</title>
<path fill="none" stroke="black" d="M857,-1371.82C908.52,-1364.41 989.42,-1352.78 1038.23,-1345.76"/>
<polygon fill="black" stroke="black" points="1038.74,-1349.23 1048.14,-1344.34 1037.75,-1342.3 1038.74,-1349.23"/>
</g>
<!-- plugsurfing&#45;&gt;recharge -->
<g id="edge15" class="edge">
<title>plugsurfing&#45;&gt;recharge</title>
<path fill="none" stroke="black" d="M829.96,-1360.48C915.52,-1286.34 1237.11,-1007.69 1335.1,-922.78"/>
<polygon fill="black" stroke="black" points="1337.56,-925.28 1342.82,-916.08 1332.97,-919.99 1337.56,-925.28"/>
</g>
<!-- plugsurfing&#45;&gt;mer -->
<g id="edge14" class="edge">
<title>plugsurfing&#45;&gt;mer</title>
<path fill="none" stroke="black" d="M775.07,-1363.29C728.34,-1341.95 644.38,-1303.61 596.35,-1281.67"/>
<polygon fill="black" stroke="black" points="597.79,-1278.48 587.24,-1277.51 594.88,-1284.85 597.79,-1278.48"/>
</g>
<!-- statkraft -->
<g id="node22" class="node">
<title>statkraft</title>
<polygon fill="lightgreen" stroke="black" points="470.52,-1387.93 419.79,-1400.36 369.07,-1387.93 369.11,-1367.8 470.47,-1367.8 470.52,-1387.93"/>
<text text-anchor="middle" x="419.79" y="-1378.66" font-family="Times,serif" font-size="14.00">Statkraft</text>
</g>
<!-- statkraft&#45;&gt;mer -->
<g id="edge20" class="edge">
<title>statkraft&#45;&gt;mer</title>
<path fill="none" stroke="black" d="M437.26,-1367.75C460.51,-1348.29 501.97,-1313.62 530.2,-1289.99"/>
<polygon fill="black" stroke="black" points="532.72,-1292.45 538.15,-1283.35 528.23,-1287.08 532.72,-1292.45"/>
</g>
<!-- skelleftea -->
<g id="node23" class="node">
<title>skelleftea</title>
<polygon fill="lightgreen" stroke="black" points="639.18,-23.56 556.19,-36 473.19,-23.56 473.27,-3.44 639.1,-3.44 639.18,-23.56"/>
<text text-anchor="middle" x="556.19" y="-14.3" font-family="Times,serif" font-size="14.00">Skellefteå Kraft</text>
</g>
<!-- okq8 -->
<g id="node33" class="node">
<title>okq8</title>
<ellipse fill="yellow" stroke="black" cx="621.16" cy="-195.69" rx="34.39" ry="18"/>
<text text-anchor="middle" x="621.16" y="-191.99" font-family="Times,serif" font-size="14.00">OKQ8</text>
</g>
<!-- skelleftea&#45;&gt;okq8 -->
<g id="edge11" class="edge">
<title>skelleftea&#45;&gt;okq8</title>
<path fill="none" stroke="black" d="M562.54,-35.36C573.86,-66.33 597.63,-131.32 611.16,-168.34"/>
<polygon fill="black" stroke="black" points="607.97,-169.8 614.69,-177.99 614.54,-167.4 607.97,-169.8"/>
</g>
<!-- vattenfall -->
<g id="node24" class="node">
<title>vattenfall</title>
<polygon fill="lightgreen" stroke="black" points="1839.34,-1720.33 1783.97,-1732.77 1728.61,-1720.33 1728.66,-1700.2 1839.29,-1700.2 1839.34,-1720.33"/>
<text text-anchor="middle" x="1783.97" y="-1711.07" font-family="Times,serif" font-size="14.00">Vattenfall</text>
</g>
<!-- vattenfall&#45;&gt;incharge -->
<g id="edge18" class="edge">
<title>vattenfall&#45;&gt;incharge</title>
<path fill="none" stroke="black" d="M1783.06,-1700.17C1781.24,-1671.21 1777.15,-1606.04 1774.78,-1568.38"/>
<polygon fill="black" stroke="black" points="1778.25,-1567.85 1774.13,-1558.09 1771.27,-1568.29 1778.25,-1567.85"/>
</g>
<!-- umea -->
<g id="node25" class="node">
<title>umea</title>
<ellipse fill="lightgreen" stroke="black" cx="306.98" cy="-1242.22" rx="57.69" ry="18"/>
<text text-anchor="middle" x="306.98" y="-1238.52" font-family="Times,serif" font-size="14.00">Umeå Energi</text>
</g>
<!-- umea&#45;&gt;mer -->
<g id="edge21" class="edge">
<title>umea&#45;&gt;mer</title>
<path fill="none" stroke="black" d="M362.82,-1247.26C411.39,-1251.65 480.41,-1257.88 522.59,-1261.69"/>
<polygon fill="black" stroke="black" points="522.43,-1265.19 532.7,-1262.6 523.06,-1258.22 522.43,-1265.19"/>
</g>
<!-- goteborgenergi -->
<g id="node26" class="node">
<title>goteborgenergi</title>
<ellipse fill="lightgreen" stroke="black" cx="1599.54" cy="-1516.55" rx="69.59" ry="18"/>
<text text-anchor="middle" x="1599.54" y="-1512.85" font-family="Times,serif" font-size="14.00">Göteborg Energi</text>
</g>
<!-- goteborgenergi&#45;&gt;incharge -->
<g id="edge19" class="edge">
<title>goteborgenergi&#45;&gt;incharge</title>
<path fill="none" stroke="black" d="M1661.19,-1524.91C1683.68,-1527.96 1708.63,-1531.34 1729.25,-1534.14"/>
<polygon fill="black" stroke="black" points="1728.92,-1537.62 1739.3,-1535.5 1729.86,-1530.69 1728.92,-1537.62"/>
</g>
<!-- vw -->
<g id="node27" class="node">
<title>vw</title>
<polygon fill="lightblue" stroke="black" points="478.92,-1040.44 412.06,-1052.88 345.2,-1040.44 345.26,-1020.32 478.86,-1020.32 478.92,-1040.44"/>
<text text-anchor="middle" x="412.06" y="-1031.18" font-family="Times,serif" font-size="14.00">Volkswagen</text>
</g>
<!-- vw&#45;&gt;ionity -->
<g id="edge30" class="edge">
<title>vw&#45;&gt;ionity</title>
<path fill="none" stroke="black" d="M440.32,-1047.79C545.55,-1095.84 914.92,-1264.53 1038.85,-1321.12"/>
<polygon fill="black" stroke="black" points="1037.47,-1324.34 1048.02,-1325.31 1040.38,-1317.98 1037.47,-1324.34"/>
</g>
<!-- ford -->
<g id="node28" class="node">
<title>ford</title>
<polygon fill="lightblue" stroke="black" points="1203.44,-1497.83 1169.46,-1510.27 1135.47,-1497.83 1135.5,-1477.71 1203.41,-1477.71 1203.44,-1497.83"/>
<text text-anchor="middle" x="1169.46" y="-1488.57" font-family="Times,serif" font-size="14.00">Ford</text>
</g>
<!-- ford&#45;&gt;ionity -->
<g id="edge31" class="edge">
<title>ford&#45;&gt;ionity</title>
<path fill="none" stroke="black" d="M1160.85,-1477.65C1145.84,-1452.14 1114.66,-1399.15 1095.63,-1366.8"/>
<polygon fill="black" stroke="black" points="1098.46,-1364.72 1090.37,-1357.88 1092.43,-1368.27 1098.46,-1364.72"/>
</g>
<!-- daimler -->
<g id="node29" class="node">
<title>daimler</title>
<polygon fill="lightblue" stroke="black" points="1129.35,-461.9 1079.73,-474.34 1030.11,-461.9 1030.16,-441.77 1129.31,-441.77 1129.35,-461.9"/>
<text text-anchor="middle" x="1079.73" y="-452.64" font-family="Times,serif" font-size="14.00">Daimler</text>
</g>
<!-- daimler&#45;&gt;ionity -->
<g id="edge32" class="edge">
<title>daimler&#45;&gt;ionity</title>
<path fill="none" stroke="black" d="M1079.73,-474.38C1079.73,-585.41 1079.73,-1175.52 1079.73,-1311.73"/>
<polygon fill="black" stroke="black" points="1076.23,-1311.78 1079.73,-1321.78 1083.23,-1311.78 1076.23,-1311.78"/>
</g>
<!-- bmw -->
<g id="node30" class="node">
<title>bmw</title>
<polygon fill="lightblue" stroke="black" points="1072.45,-1547.56 1030.9,-1560 989.34,-1547.56 989.38,-1527.44 1072.41,-1527.44 1072.45,-1547.56"/>
<text text-anchor="middle" x="1030.9" y="-1538.3" font-family="Times,serif" font-size="14.00">BMW</text>
</g>
<!-- bmw&#45;&gt;ionity -->
<g id="edge33" class="edge">
<title>bmw&#45;&gt;ionity</title>
<path fill="none" stroke="black" d="M1034.49,-1527.13C1042.61,-1493.51 1062.49,-1411.2 1072.98,-1367.74"/>
<polygon fill="black" stroke="black" points="1076.43,-1368.37 1075.38,-1357.83 1069.63,-1366.72 1076.43,-1368.37"/>
</g>
<!-- mcd -->
<g id="node31" class="node">
<title>mcd</title>
<ellipse fill="none" stroke="black" cx="1640.38" cy="-819.37" rx="51.99" ry="18"/>
<text text-anchor="middle" x="1640.38" y="-815.67" font-family="Times,serif" font-size="14.00">McDonalds</text>
</g>
<!-- mcd&#45;&gt;recharge -->
<g id="edge28" class="edge">
<title>mcd&#45;&gt;recharge</title>
<path fill="none" stroke="black" d="M1600.14,-830.81C1549.43,-845.23 1462.51,-869.95 1409.35,-885.06"/>
<polygon fill="black" stroke="black" points="1408.17,-881.76 1399.5,-887.86 1410.08,-888.49 1408.17,-881.76"/>
</g>
<!-- max -->
<g id="node32" class="node">
<title>max</title>
<ellipse fill="none" stroke="black" cx="1807.34" cy="-1368.42" rx="31.7" ry="18"/>
<text text-anchor="middle" x="1807.34" y="-1364.72" font-family="Times,serif" font-size="14.00">MAX</text>
</g>
<!-- max&#45;&gt;incharge -->
<g id="edge34" class="edge">
<title>max&#45;&gt;incharge</title>
<path fill="none" stroke="black" d="M1803.73,-1386.47C1797.76,-1416.34 1785.76,-1476.3 1778.65,-1511.83"/>
<polygon fill="black" stroke="black" points="1775.15,-1511.51 1776.62,-1522.01 1782.01,-1512.89 1775.15,-1511.51"/>
</g>
<!-- okq8&#45;&gt;virta -->
<g id="edge23" class="edge">
<title>okq8&#45;&gt;virta</title>
<path fill="none" stroke="black" d="M617.87,-213.72C607.81,-268.88 577.39,-435.67 565.16,-502.71"/>
<polygon fill="black" stroke="black" points="561.65,-502.48 563.3,-512.94 568.54,-503.73 561.65,-502.48"/>
</g>
<!-- st1 -->
<g id="node34" class="node">
<title>st1</title>
<ellipse fill="yellow" stroke="black" cx="1641.04" cy="-970.12" rx="27" ry="18"/>
<text text-anchor="middle" x="1641.04" y="-966.42" font-family="Times,serif" font-size="14.00">ST1</text>
</g>
<!-- st1&#45;&gt;recharge -->
<g id="edge27" class="edge">
<title>st1&#45;&gt;recharge</title>
<path fill="none" stroke="black" d="M1615.43,-963.47C1568.52,-951.28 1468.18,-925.23 1409.31,-909.93"/>
<polygon fill="black" stroke="black" points="1410.09,-906.52 1399.53,-907.39 1408.33,-913.3 1410.09,-906.52"/>
</g>
<!-- preem -->
<g id="node35" class="node">
<title>preem</title>
<ellipse fill="yellow" stroke="black" cx="1617.19" cy="-1100.59" rx="33.6" ry="18"/>
<text text-anchor="middle" x="1617.19" y="-1096.89" font-family="Times,serif" font-size="14.00">Preem</text>
</g>
<!-- preem&#45;&gt;recharge -->
<g id="edge26" class="edge">
<title>preem&#45;&gt;recharge</title>
<path fill="none" stroke="black" d="M1598.13,-1085.37C1554.62,-1050.61 1447.64,-965.17 1394.54,-922.77"/>
<polygon fill="black" stroke="black" points="1396.5,-919.85 1386.5,-916.34 1392.13,-925.32 1396.5,-919.85"/>
</g>
<!-- tovek -->
<g id="node36" class="node">
<title>tovek</title>
<ellipse fill="none" stroke="black" cx="849.44" cy="-31.92" rx="50.09" ry="18"/>
<text text-anchor="middle" x="849.44" y="-28.22" font-family="Times,serif" font-size="14.00">Toveks Bil</text>
</g>
<!-- tovek&#45;&gt;virta -->
<g id="edge24" class="edge">
<title>tovek&#45;&gt;virta</title>
<path fill="none" stroke="black" d="M839.14,-49.69C795.76,-124.5 627.79,-414.16 575.57,-504.2"/>
<polygon fill="black" stroke="black" points="572.46,-502.58 570.47,-512.99 578.52,-506.1 572.46,-502.58"/>
</g>
<!-- polestar -->
<g id="node37" class="node">
<title>polestar</title>
<ellipse fill="lightblue" stroke="black" cx="786.03" cy="-1537.78" rx="38.99" ry="18"/>
<text text-anchor="middle" x="786.03" y="-1534.08" font-family="Times,serif" font-size="14.00">Polestar</text>
</g>
<!-- polestar&#45;&gt;plugsurfing -->
<g id="edge12" class="edge">
<title>polestar&#45;&gt;plugsurfing</title>
<path fill="none" stroke="black" d="M788.65,-1519.54C792.61,-1491.97 800.16,-1439.49 804.83,-1406.97"/>
<polygon fill="black" stroke="black" points="808.34,-1407.17 806.3,-1396.77 801.41,-1406.17 808.34,-1407.17"/>
</g>
<!-- porsche -->
<g id="node38" class="node">
<title>porsche</title>
<ellipse fill="lightblue" stroke="black" cx="412.06" cy="-761.25" rx="102.88" ry="18"/>
<text text-anchor="middle" x="412.06" y="-757.55" font-family="Times,serif" font-size="14.00">Porsche Charging Service</text>
</g>
<!-- porsche&#45;&gt;mer -->
<g id="edge42" class="edge">
<title>porsche&#45;&gt;mer</title>
<path fill="none" stroke="black" d="M417.41,-779.48C439.66,-855.24 524.9,-1145.54 551.8,-1237.18"/>
<polygon fill="black" stroke="black" points="548.47,-1238.26 554.65,-1246.86 555.19,-1236.28 548.47,-1238.26"/>
</g>
<!-- porsche&#45;&gt;virta -->
<g id="edge41" class="edge">
<title>porsche&#45;&gt;virta</title>
<path fill="none" stroke="black" d="M423.67,-743.19C449.58,-702.87 512.26,-605.33 542.76,-557.88"/>
<polygon fill="black" stroke="black" points="545.77,-559.67 548.23,-549.36 539.88,-555.88 545.77,-559.67"/>
</g>
<!-- porsche&#45;&gt;vw -->
<g id="edge40" class="edge">
<title>porsche&#45;&gt;vw</title>
<path fill="none" stroke="black" d="M412.06,-779.63C412.06,-827.39 412.06,-955.45 412.06,-1009.87"/>
<polygon fill="black" stroke="black" points="408.56,-1010.02 412.06,-1020.02 415.56,-1010.02 408.56,-1010.02"/>
</g>
<!-- elli -->
<g id="node39" class="node">
<title>elli</title>
<ellipse fill="lightblue" stroke="black" cx="1286.53" cy="-1160.61" rx="50.89" ry="18"/>
<text text-anchor="middle" x="1286.53" y="-1156.91" font-family="Times,serif" font-size="14.00">We Charge</text>
</g>
<!-- elli&#45;&gt;ionity -->
<g id="edge37" class="edge">
<title>elli&#45;&gt;ionity</title>
<path fill="none" stroke="black" d="M1267.07,-1177.47C1230.42,-1209.22 1151.01,-1278.04 1108.29,-1315.05"/>
<polygon fill="black" stroke="black" points="1105.78,-1312.6 1100.51,-1321.79 1110.36,-1317.89 1105.78,-1312.6"/>
</g>
<!-- elli&#45;&gt;recharge -->
<g id="edge36" class="edge">
<title>elli&#45;&gt;recharge</title>
<path fill="none" stroke="black" d="M1291.82,-1142.56C1305.05,-1097.51 1339.61,-979.82 1355.46,-925.84"/>
<polygon fill="black" stroke="black" points="1358.82,-926.82 1358.28,-916.24 1352.1,-924.85 1358.82,-926.82"/>
</g>
<!-- mercedes -->
<g id="node40" class="node">
<title>mercedes</title>
<ellipse fill="lightblue" stroke="black" cx="1286.53" cy="-635.52" rx="87.99" ry="18"/>
<text text-anchor="middle" x="1286.53" y="-631.82" font-family="Times,serif" font-size="14.00">Mercedes Me Charge</text>
</g>
<!-- mercedes&#45;&gt;recharge -->
<g id="edge38" class="edge">
<title>mercedes&#45;&gt;recharge</title>
<path fill="none" stroke="black" d="M1291.82,-653.57C1305.05,-698.63 1339.61,-816.32 1355.46,-870.29"/>
<polygon fill="black" stroke="black" points="1352.1,-871.29 1358.28,-879.89 1358.82,-869.31 1352.1,-871.29"/>
</g>
<!-- mercedes&#45;&gt;daimler -->
<g id="edge39" class="edge">
<title>mercedes&#45;&gt;daimler</title>
<path fill="none" stroke="black" d="M1265.94,-617.69C1227.34,-584.24 1144.32,-512.3 1103.45,-476.88"/>
<polygon fill="black" stroke="black" points="1105.71,-474.21 1095.86,-470.31 1101.13,-479.51 1105.71,-474.21"/>
</g>
<!-- newmotion -->
<g id="node41" class="node">
<title>newmotion</title>
<ellipse fill="yellow" stroke="black" cx="1554.46" cy="-1258.37" rx="64.19" ry="18"/>
<text text-anchor="middle" x="1554.46" y="-1254.67" font-family="Times,serif" font-size="14.00">Shell Recharge</text>
</g>
<!-- newmotion&#45;&gt;recharge -->
<g id="edge35" class="edge">
<title>newmotion&#45;&gt;recharge</title>
<path fill="none" stroke="black" d="M1545,-1240.5C1514.04,-1182.05 1415.62,-996.24 1378.22,-925.64"/>
<polygon fill="black" stroke="black" points="1381.14,-923.67 1373.36,-916.47 1374.95,-926.95 1381.14,-923.67"/>
</g>
<!-- easypark -->
<g id="node42" class="node">
<title>easypark</title>
<ellipse fill="none" stroke="black" cx="1451.69" cy="-1406.29" rx="44.39" ry="18"/>
<text text-anchor="middle" x="1451.69" y="-1402.59" font-family="Times,serif" font-size="14.00">EasyPark</text>
</g>
<!-- easypark&#45;&gt;recharge -->
<g id="edge29" class="edge">
<title>easypark&#45;&gt;recharge</title>
<path fill="none" stroke="black" d="M1448.55,-1388.21C1435.39,-1312.26 1384.54,-1018.83 1368.5,-926.23"/>
<polygon fill="black" stroke="black" points="1371.91,-925.46 1366.76,-916.2 1365.02,-926.65 1371.91,-925.46"/>
</g>
</g>
</svg>
