<?xml version="1.0" encoding="UTF-8" standalone="no"?>
<!DOCTYPE svg PUBLIC "-//W3C//DTD SVG 1.1//EN"
 "http://www.w3.org/Graphics/SVG/1.1/DTD/svg11.dtd">
<!-- Generated by graphviz version 2.47.1 (20210417.1919)
 -->
<!-- Pages: 1 -->
<svg width="1938pt" height="1878pt"
 viewBox="0.00 0.00 1937.67 1878.31" xmlns="http://www.w3.org/2000/svg" xmlns:xlink="http://www.w3.org/1999/xlink">
<g id="graph0" class="graph" transform="scale(1 1) rotate(0) translate(4 1874.31)">
<polygon fill="white" stroke="transparent" points="-4,4 -4,-1874.31 1933.67,-1874.31 1933.67,4 -4,4"/>
<!-- ionity -->
<g id="node1" class="node">
<title>ionity</title>
<polygon fill="darkorange" stroke="black" points="1182.96,-1452.94 1119.96,-1452.94 1119.96,-1416.94 1182.96,-1416.94 1182.96,-1452.94"/>
<text text-anchor="middle" x="1151.46" y="-1431.24" font-family="Times,serif" font-size="14.00">IONITY</text>
</g>
<!-- se_ion -->
<g id="node17" class="node">
<title>se_ion</title>
<text text-anchor="middle" x="1333.52" y="-1477.59" font-family="Times,serif" font-size="14.00">SE*ION</text>
</g>
<!-- ionity&#45;&gt;se_ion -->
<g id="edge8" class="edge">
<title>ionity&#45;&gt;se_ion</title>
<path fill="none" stroke="black" d="M1183.18,-1443.01C1215.95,-1451.36 1266.9,-1464.33 1300.24,-1472.82"/>
<polygon fill="black" stroke="black" points="1299.43,-1476.22 1309.98,-1475.3 1301.15,-1469.44 1299.43,-1476.22"/>
</g>
<!-- recharge -->
<g id="node2" class="node">
<title>recharge</title>
<polygon fill="darkorange" stroke="black" points="1503.36,-960.61 1432.36,-960.61 1432.36,-924.61 1503.36,-924.61 1503.36,-960.61"/>
<text text-anchor="middle" x="1467.86" y="-938.91" font-family="Times,serif" font-size="14.00">ReCharge</text>
</g>
<!-- se_cha -->
<g id="node11" class="node">
<title>se_cha</title>
<text text-anchor="middle" x="1489.1" y="-409.1" font-family="Times,serif" font-size="14.00">SE*CHA</text>
</g>
<!-- recharge&#45;&gt;se_cha -->
<g id="edge1" class="edge">
<title>recharge&#45;&gt;se_cha</title>
<path fill="none" stroke="black" d="M1468.6,-924.37C1471.87,-842.69 1485.17,-510.96 1488.39,-430.46"/>
<polygon fill="black" stroke="black" points="1491.89,-430.6 1488.79,-420.47 1484.9,-430.32 1491.89,-430.6"/>
</g>
<!-- incharge -->
<g id="node3" class="node">
<title>incharge</title>
<polygon fill="darkorange" stroke="black" points="1764.13,-1695.61 1697.13,-1695.61 1697.13,-1659.61 1764.13,-1659.61 1764.13,-1695.61"/>
<text text-anchor="middle" x="1730.63" y="-1673.91" font-family="Times,serif" font-size="14.00">InCharge</text>
</g>
<!-- se_vat -->
<g id="node12" class="node">
<title>se_vat</title>
<text text-anchor="middle" x="1905.67" y="-1673.91" font-family="Times,serif" font-size="14.00">SE*VAT</text>
</g>
<!-- incharge&#45;&gt;se_vat -->
<g id="edge2" class="edge">
<title>incharge&#45;&gt;se_vat</title>
<path fill="none" stroke="black" d="M1764.38,-1677.61C1795.13,-1677.61 1840.33,-1677.61 1871.28,-1677.61"/>
<polygon fill="black" stroke="black" points="1871.58,-1681.11 1881.58,-1677.61 1871.58,-1674.11 1871.58,-1681.11"/>
</g>
<!-- eon -->
<g id="node4" class="node">
<title>eon</title>
<polygon fill="lightgreen" stroke="black" points="202.54,-425.46 148.54,-425.46 148.54,-389.46 202.54,-389.46 202.54,-425.46"/>
<text text-anchor="middle" x="175.54" y="-403.76" font-family="Times,serif" font-size="14.00">E.ON</text>
</g>
<!-- virta -->
<g id="node10" class="node">
<title>virta</title>
<polygon fill="darkorange" stroke="black" points="599.19,-551.57 545.19,-551.57 545.19,-515.57 599.19,-515.57 599.19,-551.57"/>
<text text-anchor="middle" x="572.19" y="-529.87" font-family="Times,serif" font-size="14.00">Virta</text>
</g>
<!-- eon&#45;&gt;virta -->
<g id="edge22" class="edge">
<title>eon&#45;&gt;virta</title>
<path fill="none" stroke="black" d="M202.8,-416.12C272.24,-438.2 455.82,-496.57 534.99,-521.74"/>
<polygon fill="black" stroke="black" points="534.41,-525.23 545,-524.93 536.53,-518.56 534.41,-525.23"/>
</g>
<!-- se_edr -->
<g id="node13" class="node">
<title>se_edr</title>
<text text-anchor="middle" x="57.16" y="-569.9" font-family="Times,serif" font-size="14.00">SE*EDR</text>
</g>
<!-- eon&#45;&gt;se_edr -->
<g id="edge3" class="edge">
<title>eon&#45;&gt;se_edr</title>
<path fill="none" stroke="black" d="M162.65,-425.55C139.4,-458.17 90.84,-526.33 68.66,-557.46"/>
<polygon fill="black" stroke="black" points="65.63,-555.68 62.68,-565.86 71.33,-559.74 65.63,-555.68"/>
</g>
<!-- mer -->
<g id="node5" class="node">
<title>mer</title>
<polygon fill="darkorange" stroke="black" points="599.19,-1369.65 545.19,-1369.65 545.19,-1333.65 599.19,-1333.65 599.19,-1369.65"/>
<text text-anchor="middle" x="572.19" y="-1347.95" font-family="Times,serif" font-size="14.00">MER </text>
</g>
<!-- se_mer -->
<g id="node15" class="node">
<title>se_mer</title>
<text text-anchor="middle" x="693.4" y="-1568.16" font-family="Times,serif" font-size="14.00">SE*MER</text>
</g>
<!-- mer&#45;&gt;se_mer -->
<g id="edge5" class="edge">
<title>mer&#45;&gt;se_mer</title>
<path fill="none" stroke="black" d="M582.11,-1369.67C605.15,-1411.53 662,-1514.82 684.26,-1555.26"/>
<polygon fill="black" stroke="black" points="681.24,-1557.03 689.13,-1564.11 687.38,-1553.66 681.24,-1557.03"/>
</g>
<!-- se_cle -->
<g id="node16" class="node">
<title>se_cle</title>
<text text-anchor="middle" x="582.62" y="-1515.12" font-family="Times,serif" font-size="14.00">SE*CLE</text>
</g>
<!-- mer&#45;&gt;se_cle -->
<g id="edge6" class="edge">
<title>mer&#45;&gt;se_cle</title>
<path fill="none" stroke="black" d="M573.33,-1369.86C575.34,-1402.12 579.51,-1468.91 581.5,-1500.93"/>
<polygon fill="black" stroke="black" points="578.02,-1501.27 582.13,-1511.03 585,-1500.83 578.02,-1501.27"/>
</g>
<!-- tesla -->
<g id="node6" class="node">
<title>tesla</title>
<polygon fill="lightblue" stroke="black" points="890.63,-872.61 836.63,-872.61 836.63,-836.61 890.63,-836.61 890.63,-872.61"/>
<text text-anchor="middle" x="863.63" y="-850.91" font-family="Times,serif" font-size="14.00">Tesla</text>
</g>
<!-- fortum -->
<g id="node7" class="node">
<title>fortum</title>
<polygon fill="lightgreen" stroke="black" points="1640.45,-650.18 1491.45,-650.18 1491.45,-614.18 1640.45,-614.18 1640.45,-650.18"/>
<text text-anchor="middle" x="1565.95" y="-628.48" font-family="Times,serif" font-size="14.00">Fortum Charge &amp; Drive</text>
</g>
<!-- fortum&#45;&gt;recharge -->
<g id="edge25" class="edge">
<title>fortum&#45;&gt;recharge</title>
<path fill="none" stroke="black" d="M1560.26,-650.21C1543.83,-702.18 1496.32,-852.55 1476.6,-914.96"/>
<polygon fill="black" stroke="black" points="1473.25,-913.94 1473.58,-924.53 1479.93,-916.05 1473.25,-913.94"/>
</g>
<!-- se_cnd -->
<g id="node14" class="node">
<title>se_cnd</title>
<text text-anchor="middle" x="1721.13" y="-553.13" font-family="Times,serif" font-size="14.00">SE*CND</text>
</g>
<!-- fortum&#45;&gt;se_cnd -->
<g id="edge4" class="edge">
<title>fortum&#45;&gt;se_cnd</title>
<path fill="none" stroke="black" d="M1603.12,-614.13C1631.94,-600.14 1671.07,-581.14 1696.21,-568.93"/>
<polygon fill="black" stroke="black" points="1697.96,-571.97 1705.43,-564.46 1694.91,-565.68 1697.96,-571.97"/>
</g>
<!-- ufc -->
<g id="node8" class="node">
<title>ufc</title>
<polygon fill="none" stroke="black" points="303.31,-308.59 214.31,-308.59 214.31,-272.59 303.31,-272.59 303.31,-308.59"/>
<text text-anchor="middle" x="258.81" y="-286.89" font-family="Times,serif" font-size="14.00">UFC Sweden</text>
</g>
<!-- ufc&#45;&gt;eon -->
<g id="edge10" class="edge">
<title>ufc&#45;&gt;eon</title>
<path fill="none" stroke="black" d="M245.98,-308.59C232.21,-327.92 210.18,-358.83 194.43,-380.95"/>
<polygon fill="black" stroke="black" points="191.47,-379.06 188.52,-389.24 197.17,-383.12 191.47,-379.06"/>
</g>
<!-- se_ufc -->
<g id="node18" class="node">
<title>se_ufc</title>
<text text-anchor="middle" x="340.63" y="-172.05" font-family="Times,serif" font-size="14.00">SE*UFC</text>
</g>
<!-- ufc&#45;&gt;se_ufc -->
<g id="edge7" class="edge">
<title>ufc&#45;&gt;se_ufc</title>
<path fill="none" stroke="black" d="M271.77,-272.39C287.63,-250.14 314.22,-212.82 329.3,-191.66"/>
<polygon fill="black" stroke="black" points="332.21,-193.6 335.16,-183.43 326.51,-189.54 332.21,-193.6"/>
</g>
<!-- circlek -->
<g id="node9" class="node">
<title>circlek</title>
<polygon fill="yellow" stroke="black" points="896.63,-686.61 836.63,-686.61 836.63,-650.61 896.63,-650.61 896.63,-686.61"/>
<text text-anchor="middle" x="866.63" y="-664.91" font-family="Times,serif" font-size="14.00">CirkleK</text>
</g>
<!-- fi_001 -->
<g id="node19" class="node">
<title>fi_001</title>
<text text-anchor="middle" x="20" y="-769.94" font-family="Times,serif" font-size="14.00">FI*001</text>
</g>
<!-- virta&#45;&gt;fi_001 -->
<g id="edge9" class="edge">
<title>virta&#45;&gt;fi_001</title>
<path fill="none" stroke="black" d="M545.18,-545.31C451.38,-586.09 140.32,-721.33 46.82,-761.98"/>
<polygon fill="black" stroke="black" points="45.26,-758.84 37.48,-766.04 48.05,-765.26 45.26,-758.84"/>
</g>
<!-- charge4go -->
<g id="node20" class="node">
<title>charge4go</title>
<polygon fill="none" stroke="black" points="908.68,-406.88 879.14,-424.88 820.06,-424.88 790.52,-406.88 820.06,-388.88 879.14,-388.88 908.68,-406.88"/>
<text text-anchor="middle" x="849.6" y="-403.18" font-family="Times,serif" font-size="14.00">Charge4Go</text>
</g>
<!-- charge4go&#45;&gt;ionity -->
<g id="edge16" class="edge">
<title>charge4go&#45;&gt;ionity</title>
<path fill="none" stroke="black" d="M854.97,-425.16C891.12,-548.28 1098.98,-1256.19 1143.2,-1406.78"/>
<polygon fill="black" stroke="black" points="1139.92,-1408.03 1146.09,-1416.64 1146.63,-1406.06 1139.92,-1408.03"/>
</g>
<!-- charge4go&#45;&gt;virta -->
<g id="edge17" class="edge">
<title>charge4go&#45;&gt;virta</title>
<path fill="none" stroke="black" d="M815.58,-422.42C763.04,-446.41 662.57,-492.3 608.6,-516.94"/>
<polygon fill="black" stroke="black" points="607.05,-513.8 599.41,-521.14 609.96,-520.17 607.05,-513.8"/>
</g>
<!-- plugsurfing -->
<g id="node21" class="node">
<title>plugsurfing</title>
<polygon fill="none" stroke="black" points="908.68,-1478.34 879.14,-1496.34 820.06,-1496.34 790.52,-1478.34 820.06,-1460.34 879.14,-1460.34 908.68,-1478.34"/>
<text text-anchor="middle" x="849.6" y="-1474.64" font-family="Times,serif" font-size="14.00">Plugsurfing</text>
</g>
<!-- plugsurfing&#45;&gt;ionity -->
<g id="edge13" class="edge">
<title>plugsurfing&#45;&gt;ionity</title>
<path fill="none" stroke="black" d="M897.43,-1471.46C955.84,-1463.07 1053.72,-1448.99 1109.38,-1440.99"/>
<polygon fill="black" stroke="black" points="1110.2,-1444.41 1119.6,-1439.52 1109.2,-1437.48 1110.2,-1444.41"/>
</g>
<!-- plugsurfing&#45;&gt;recharge -->
<g id="edge15" class="edge">
<title>plugsurfing&#45;&gt;recharge</title>
<path fill="none" stroke="black" d="M870.53,-1460.21C962.73,-1380.32 1332.88,-1059.58 1439.18,-967.46"/>
<polygon fill="black" stroke="black" points="1441.68,-969.93 1446.94,-960.74 1437.1,-964.64 1441.68,-969.93"/>
</g>
<!-- plugsurfing&#45;&gt;mer -->
<g id="edge14" class="edge">
<title>plugsurfing&#45;&gt;mer</title>
<path fill="none" stroke="black" d="M815.58,-1462.81C763.04,-1438.81 662.57,-1392.92 608.6,-1368.28"/>
<polygon fill="black" stroke="black" points="609.96,-1365.05 599.41,-1364.08 607.05,-1371.42 609.96,-1365.05"/>
</g>
<!-- statkraft -->
<g id="node22" class="node">
<title>statkraft</title>
<polygon fill="lightgreen" stroke="black" points="516.27,-1435.78 465.55,-1448.22 414.82,-1435.78 414.87,-1415.65 516.23,-1415.65 516.27,-1435.78"/>
<text text-anchor="middle" x="465.55" y="-1426.52" font-family="Times,serif" font-size="14.00">Statkraft</text>
</g>
<!-- statkraft&#45;&gt;mer -->
<g id="edge20" class="edge">
<title>statkraft&#45;&gt;mer</title>
<path fill="none" stroke="black" d="M485.61,-1415.44C500.75,-1404.29 521.85,-1388.74 539.42,-1375.79"/>
<polygon fill="black" stroke="black" points="541.75,-1378.42 547.73,-1369.67 537.6,-1372.79 541.75,-1378.42"/>
</g>
<!-- skelleftea -->
<g id="node23" class="node">
<title>skelleftea</title>
<polygon fill="lightgreen" stroke="black" points="648.35,-23.56 565.36,-36 482.36,-23.56 482.44,-3.44 648.27,-3.44 648.35,-23.56"/>
<text text-anchor="middle" x="565.36" y="-14.3" font-family="Times,serif" font-size="14.00">Skellefteå Kraft</text>
</g>
<!-- okq8 -->
<g id="node33" class="node">
<title>okq8</title>
<ellipse fill="yellow" stroke="black" cx="634.21" cy="-194.22" rx="34.39" ry="18"/>
<text text-anchor="middle" x="634.21" y="-190.52" font-family="Times,serif" font-size="14.00">OKQ8</text>
</g>
<!-- skelleftea&#45;&gt;okq8 -->
<g id="edge11" class="edge">
<title>skelleftea&#45;&gt;okq8</title>
<path fill="none" stroke="black" d="M572.08,-35.22C584.05,-65.85 609.14,-130.06 623.5,-166.82"/>
<polygon fill="black" stroke="black" points="620.35,-168.37 627.25,-176.41 626.87,-165.82 620.35,-168.37"/>
</g>
<!-- vattenfall -->
<g id="node24" class="node">
<title>vattenfall</title>
<polygon fill="lightgreen" stroke="black" points="1796.96,-1857.87 1741.6,-1870.31 1686.23,-1857.87 1686.28,-1837.75 1796.91,-1837.75 1796.96,-1857.87"/>
<text text-anchor="middle" x="1741.6" y="-1848.61" font-family="Times,serif" font-size="14.00">Vattenfall</text>
</g>
<!-- vattenfall&#45;&gt;incharge -->
<g id="edge18" class="edge">
<title>vattenfall&#45;&gt;incharge</title>
<path fill="none" stroke="black" d="M1740.68,-1837.72C1738.86,-1808.76 1734.77,-1743.58 1732.4,-1705.92"/>
<polygon fill="black" stroke="black" points="1735.88,-1705.4 1731.76,-1695.64 1728.89,-1705.84 1735.88,-1705.4"/>
</g>
<!-- umea -->
<g id="node25" class="node">
<title>umea</title>
<ellipse fill="lightgreen" stroke="black" cx="352.57" cy="-1290.2" rx="57.69" ry="18"/>
<text text-anchor="middle" x="352.57" y="-1286.5" font-family="Times,serif" font-size="14.00">Umeå Energi</text>
</g>
<!-- umea&#45;&gt;mer -->
<g id="edge21" class="edge">
<title>umea&#45;&gt;mer</title>
<path fill="none" stroke="black" d="M395.7,-1302.26C436.41,-1313.66 496.8,-1330.55 535.32,-1341.33"/>
<polygon fill="black" stroke="black" points="534.52,-1344.74 545.09,-1344.07 536.41,-1338 534.52,-1344.74"/>
</g>
<!-- goteborgenergi -->
<g id="node26" class="node">
<title>goteborgenergi</title>
<ellipse fill="lightgreen" stroke="black" cx="1557.17" cy="-1654.1" rx="69.59" ry="18"/>
<text text-anchor="middle" x="1557.17" y="-1650.4" font-family="Times,serif" font-size="14.00">Göteborg Energi</text>
</g>
<!-- goteborgenergi&#45;&gt;incharge -->
<g id="edge19" class="edge">
<title>goteborgenergi&#45;&gt;incharge</title>
<path fill="none" stroke="black" d="M1618.81,-1662.45C1641.3,-1665.5 1666.26,-1668.89 1686.88,-1671.68"/>
<polygon fill="black" stroke="black" points="1686.54,-1675.17 1696.92,-1673.04 1687.48,-1668.23 1686.54,-1675.17"/>
</g>
<!-- vw -->
<g id="node27" class="node">
<title>vw</title>
<polygon fill="lightblue" stroke="black" points="474.17,-1100.66 407.31,-1113.1 340.45,-1100.66 340.51,-1080.53 474.11,-1080.53 474.17,-1100.66"/>
<text text-anchor="middle" x="407.31" y="-1091.4" font-family="Times,serif" font-size="14.00">Volkswagen</text>
</g>
<!-- vw&#45;&gt;ionity -->
<g id="edge30" class="edge">
<title>vw&#45;&gt;ionity</title>
<path fill="none" stroke="black" d="M435.58,-1108C549.65,-1160.1 976.46,-1355.02 1110.75,-1416.35"/>
<polygon fill="black" stroke="black" points="1109.36,-1419.56 1119.91,-1420.53 1112.26,-1413.19 1109.36,-1419.56"/>
</g>
<!-- ford -->
<g id="node28" class="node">
<title>ford</title>
<polygon fill="lightblue" stroke="black" points="1257.57,-1554.43 1223.59,-1566.87 1189.6,-1554.43 1189.63,-1534.31 1257.54,-1534.31 1257.57,-1554.43"/>
<text text-anchor="middle" x="1223.59" y="-1545.17" font-family="Times,serif" font-size="14.00">Ford</text>
</g>
<!-- ford&#45;&gt;ionity -->
<g id="edge31" class="edge">
<title>ford&#45;&gt;ionity</title>
<path fill="none" stroke="black" d="M1214.16,-1533.98C1202.56,-1515.66 1182.67,-1484.23 1168.4,-1461.69"/>
<polygon fill="black" stroke="black" points="1171.35,-1459.81 1163.04,-1453.23 1165.43,-1463.55 1171.35,-1459.81"/>
</g>
<!-- daimler -->
<g id="node29" class="node">
<title>daimler</title>
<polygon fill="lightblue" stroke="black" points="1201.08,-455.85 1151.46,-468.28 1101.85,-455.85 1101.89,-435.72 1201.04,-435.72 1201.08,-455.85"/>
<text text-anchor="middle" x="1151.46" y="-446.58" font-family="Times,serif" font-size="14.00">Daimler</text>
</g>
<!-- daimler&#45;&gt;ionity -->
<g id="edge32" class="edge">
<title>daimler&#45;&gt;ionity</title>
<path fill="none" stroke="black" d="M1151.46,-468.64C1151.46,-588.47 1151.46,-1258.85 1151.46,-1406.27"/>
<polygon fill="black" stroke="black" points="1147.96,-1406.71 1151.46,-1416.71 1154.96,-1406.71 1147.96,-1406.71"/>
</g>
<!-- bmw -->
<g id="node30" class="node">
<title>bmw</title>
<polygon fill="lightblue" stroke="black" points="1126.65,-1604.39 1085.1,-1616.83 1043.54,-1604.39 1043.58,-1584.27 1126.61,-1584.27 1126.65,-1604.39"/>
<text text-anchor="middle" x="1085.1" y="-1595.13" font-family="Times,serif" font-size="14.00">BMW</text>
</g>
<!-- bmw&#45;&gt;ionity -->
<g id="edge33" class="edge">
<title>bmw&#45;&gt;ionity</title>
<path fill="none" stroke="black" d="M1091.1,-1584C1102.2,-1556.6 1126.06,-1497.68 1140.23,-1462.68"/>
<polygon fill="black" stroke="black" points="1143.61,-1463.65 1144.12,-1453.07 1137.13,-1461.02 1143.61,-1463.65"/>
</g>
<!-- mcd -->
<g id="node31" class="node">
<title>mcd</title>
<ellipse fill="none" stroke="black" cx="1694.24" cy="-854.02" rx="51.99" ry="18"/>
<text text-anchor="middle" x="1694.24" y="-850.32" font-family="Times,serif" font-size="14.00">McDonalds</text>
</g>
<!-- mcd&#45;&gt;recharge -->
<g id="edge28" class="edge">
<title>mcd&#45;&gt;recharge</title>
<path fill="none" stroke="black" d="M1659.37,-867.66C1620.05,-883.05 1556,-908.12 1512.92,-924.98"/>
<polygon fill="black" stroke="black" points="1511.56,-921.75 1503.53,-928.65 1514.11,-928.27 1511.56,-921.75"/>
</g>
<!-- max -->
<g id="node32" class="node">
<title>max</title>
<ellipse fill="none" stroke="black" cx="1764.97" cy="-1505.97" rx="31.7" ry="18"/>
<text text-anchor="middle" x="1764.97" y="-1502.27" font-family="Times,serif" font-size="14.00">MAX</text>
</g>
<!-- max&#45;&gt;incharge -->
<g id="edge34" class="edge">
<title>max&#45;&gt;incharge</title>
<path fill="none" stroke="black" d="M1761.36,-1524.01C1755.38,-1553.89 1743.38,-1613.85 1736.28,-1649.37"/>
<polygon fill="black" stroke="black" points="1732.77,-1649.06 1734.24,-1659.55 1739.63,-1650.43 1732.77,-1649.06"/>
</g>
<!-- okq8&#45;&gt;virta -->
<g id="edge23" class="edge">
<title>okq8&#45;&gt;virta</title>
<path fill="none" stroke="black" d="M630.88,-212.47C620.65,-268.4 589.7,-437.74 577.36,-505.3"/>
<polygon fill="black" stroke="black" points="573.9,-504.77 575.54,-515.24 580.78,-506.03 573.9,-504.77"/>
</g>
<!-- st1 -->
<g id="node34" class="node">
<title>st1</title>
<ellipse fill="yellow" stroke="black" cx="1696.83" cy="-1004.75" rx="27" ry="18"/>
<text text-anchor="middle" x="1696.83" y="-1001.05" font-family="Times,serif" font-size="14.00">ST1</text>
</g>
<!-- st1&#45;&gt;recharge -->
<g id="edge27" class="edge">
<title>st1&#45;&gt;recharge</title>
<path fill="none" stroke="black" d="M1671.46,-997.86C1633.3,-987.51 1560.59,-967.77 1513.18,-954.91"/>
<polygon fill="black" stroke="black" points="1514.04,-951.52 1503.47,-952.28 1512.21,-958.27 1514.04,-951.52"/>
</g>
<!-- preem -->
<g id="node35" class="node">
<title>preem</title>
<ellipse fill="yellow" stroke="black" cx="1674.86" cy="-1135.55" rx="33.6" ry="18"/>
<text text-anchor="middle" x="1674.86" y="-1131.85" font-family="Times,serif" font-size="14.00">Preem</text>
</g>
<!-- preem&#45;&gt;recharge -->
<g id="edge26" class="edge">
<title>preem&#45;&gt;recharge</title>
<path fill="none" stroke="black" d="M1657.92,-1119.76C1622.03,-1086.31 1538.09,-1008.07 1494.78,-967.7"/>
<polygon fill="black" stroke="black" points="1497.14,-965.11 1487.43,-960.85 1492.36,-970.23 1497.14,-965.11"/>
</g>
<!-- tovek -->
<g id="node36" class="node">
<title>tovek</title>
<ellipse fill="none" stroke="black" cx="858.41" cy="-22.9" rx="50.09" ry="18"/>
<text text-anchor="middle" x="858.41" y="-19.2" font-family="Times,serif" font-size="14.00">Toveks Bil</text>
</g>
<!-- tovek&#45;&gt;virta -->
<g id="edge24" class="edge">
<title>tovek&#45;&gt;virta</title>
<path fill="none" stroke="black" d="M848.39,-40.78C805.72,-116.9 638.99,-414.38 587.45,-506.34"/>
<polygon fill="black" stroke="black" points="584.26,-504.87 582.43,-515.31 590.37,-508.3 584.26,-504.87"/>
</g>
<!-- polestar -->
<g id="node37" class="node">
<title>polestar</title>
<ellipse fill="lightblue" stroke="black" cx="833.8" cy="-1588.21" rx="38.99" ry="18"/>
<text text-anchor="middle" x="833.8" y="-1584.51" font-family="Times,serif" font-size="14.00">Polestar</text>
</g>
<!-- polestar&#45;&gt;plugsurfing -->
<g id="edge12" class="edge">
<title>polestar&#45;&gt;plugsurfing</title>
<path fill="none" stroke="black" d="M836.41,-1570.07C838.89,-1552.81 842.66,-1526.59 845.54,-1506.6"/>
<polygon fill="black" stroke="black" points="849.03,-1506.91 846.99,-1496.51 842.1,-1505.91 849.03,-1506.91"/>
</g>
<!-- porsche -->
<g id="node38" class="node">
<title>porsche</title>
<polygon fill="lightblue" stroke="black" points="525.97,-790.13 466.64,-808.13 347.99,-808.13 288.66,-790.13 347.99,-772.13 466.64,-772.13 525.97,-790.13"/>
<text text-anchor="middle" x="407.31" y="-786.43" font-family="Times,serif" font-size="14.00">Porsche Charging Service</text>
</g>
<!-- porsche&#45;&gt;mer -->
<g id="edge42" class="edge">
<title>porsche&#45;&gt;mer</title>
<path fill="none" stroke="black" d="M412.61,-808.17C436.57,-889.76 534.84,-1224.45 564,-1323.75"/>
<polygon fill="black" stroke="black" points="560.65,-1324.78 566.83,-1333.39 567.37,-1322.81 560.65,-1324.78"/>
</g>
<!-- porsche&#45;&gt;virta -->
<g id="edge41" class="edge">
<title>porsche&#45;&gt;virta</title>
<path fill="none" stroke="black" d="M418.91,-772.09C447.46,-727.65 521.32,-612.73 555,-560.33"/>
<polygon fill="black" stroke="black" points="558.15,-561.9 560.61,-551.59 552.26,-558.11 558.15,-561.9"/>
</g>
<!-- porsche&#45;&gt;vw -->
<g id="edge40" class="edge">
<title>porsche&#45;&gt;vw</title>
<path fill="none" stroke="black" d="M407.31,-808.29C407.31,-860.44 407.31,-1010.7 407.31,-1070.3"/>
<polygon fill="black" stroke="black" points="403.81,-1070.34 407.31,-1080.34 410.81,-1070.34 403.81,-1070.34"/>
</g>
<!-- elli -->
<g id="node39" class="node">
<title>elli</title>
<polygon fill="lightblue" stroke="black" points="1440.52,-1235.23 1411.23,-1253.23 1352.66,-1253.23 1323.37,-1235.23 1352.66,-1217.23 1411.23,-1217.23 1440.52,-1235.23"/>
<text text-anchor="middle" x="1381.94" y="-1231.53" font-family="Times,serif" font-size="14.00">We Charge</text>
</g>
<!-- elli&#45;&gt;ionity -->
<g id="edge37" class="edge">
<title>elli&#45;&gt;ionity</title>
<path fill="none" stroke="black" d="M1361.08,-1253.3C1319.71,-1289.16 1227.19,-1369.32 1180.14,-1410.1"/>
<polygon fill="black" stroke="black" points="1177.71,-1407.57 1172.44,-1416.76 1182.29,-1412.86 1177.71,-1407.57"/>
</g>
<!-- elli&#45;&gt;recharge -->
<g id="edge36" class="edge">
<title>elli&#45;&gt;recharge</title>
<path fill="none" stroke="black" d="M1387.32,-1216.92C1401.88,-1167.35 1442.14,-1030.23 1459.6,-970.75"/>
<polygon fill="black" stroke="black" points="1463.03,-971.49 1462.49,-960.91 1456.32,-969.52 1463.03,-971.49"/>
</g>
<!-- mercedes -->
<g id="node40" class="node">
<title>mercedes</title>
<polygon fill="lightblue" stroke="black" points="1483.08,-650 1432.51,-668 1331.38,-668 1280.81,-650 1331.38,-632 1432.51,-632 1483.08,-650"/>
<text text-anchor="middle" x="1381.94" y="-646.3" font-family="Times,serif" font-size="14.00">Mercedes Me Charge</text>
</g>
<!-- mercedes&#45;&gt;recharge -->
<g id="edge38" class="edge">
<title>mercedes&#45;&gt;recharge</title>
<path fill="none" stroke="black" d="M1387.32,-668.3C1401.88,-717.87 1442.14,-854.99 1459.6,-914.48"/>
<polygon fill="black" stroke="black" points="1456.32,-915.71 1462.49,-924.31 1463.03,-913.73 1456.32,-915.71"/>
</g>
<!-- mercedes&#45;&gt;daimler -->
<g id="edge39" class="edge">
<title>mercedes&#45;&gt;daimler</title>
<path fill="none" stroke="black" d="M1361.08,-631.92C1318.23,-594.78 1220.5,-510.1 1175.26,-470.9"/>
<polygon fill="black" stroke="black" points="1177.55,-468.25 1167.7,-464.35 1172.96,-473.54 1177.55,-468.25"/>
</g>
<!-- newmotion -->
<g id="node41" class="node">
<title>newmotion</title>
<polygon fill="yellow" stroke="black" points="1684.17,-1303.15 1647.12,-1321.15 1573.02,-1321.15 1535.97,-1303.15 1573.02,-1285.15 1647.12,-1285.15 1684.17,-1303.15"/>
<text text-anchor="middle" x="1610.07" y="-1299.45" font-family="Times,serif" font-size="14.00">Shell Recharge</text>
</g>
<!-- newmotion&#45;&gt;recharge -->
<g id="edge35" class="edge">
<title>newmotion&#45;&gt;recharge</title>
<path fill="none" stroke="black" d="M1602.82,-1284.77C1579.57,-1225.83 1506.75,-1041.2 1478.87,-970.52"/>
<polygon fill="black" stroke="black" points="1482.02,-968.97 1475.1,-960.95 1475.51,-971.54 1482.02,-968.97"/>
</g>
<!-- easypark -->
<g id="node42" class="node">
<title>easypark</title>
<ellipse fill="none" stroke="black" cx="1501.42" cy="-1459.03" rx="44.39" ry="18"/>
<text text-anchor="middle" x="1501.42" y="-1455.33" font-family="Times,serif" font-size="14.00">EasyPark</text>
</g>
<!-- easypark&#45;&gt;recharge -->
<g id="edge29" class="edge">
<title>easypark&#45;&gt;recharge</title>
<path fill="none" stroke="black" d="M1500.25,-1440.96C1495.26,-1364.2 1475.81,-1064.9 1469.71,-970.97"/>
<polygon fill="black" stroke="black" points="1473.19,-970.56 1469.05,-960.81 1466.2,-971.02 1473.19,-970.56"/>
</g>
</g>
</svg>
