<?xml version="1.0" encoding="UTF-8" standalone="no"?>
<!DOCTYPE svg PUBLIC "-//W3C//DTD SVG 1.1//EN"
 "http://www.w3.org/Graphics/SVG/1.1/DTD/svg11.dtd">
<!-- Generated by graphviz version 2.47.1 (20210417.1919)
 -->
<!-- Pages: 1 -->
<svg width="2620pt" height="239pt"
 viewBox="0.00 0.00 2619.50 239.00" xmlns="http://www.w3.org/2000/svg" xmlns:xlink="http://www.w3.org/1999/xlink">
<g id="graph0" class="graph" transform="scale(1 1) rotate(0) translate(4 235)">
<polygon fill="white" stroke="transparent" points="-4,4 -4,-235 2615.5,-235 2615.5,4 -4,4"/>
<!-- ionity -->
<g id="node1" class="node">
<title>ionity</title>
<polygon fill="none" stroke="black" points="845,-87 782,-87 782,-51 845,-51 845,-87"/>
<text text-anchor="middle" x="813.5" y="-65.3" font-family="Times,serif" font-size="14.00">IONITY</text>
</g>
<!-- se_ion -->
<g id="node17" class="node">
<title>se_ion</title>
<text text-anchor="middle" x="813.5" y="-3.8" font-family="Times,serif" font-size="14.00">SE*ION</text>
</g>
<!-- ionity&#45;&gt;se_ion -->
<g id="edge8" class="edge">
<title>ionity&#45;&gt;se_ion</title>
<path fill="none" stroke="black" d="M813.5,-50.79C813.5,-42.77 813.5,-33.25 813.5,-25.28"/>
<polygon fill="black" stroke="black" points="817,-25.06 813.5,-15.06 810,-25.06 817,-25.06"/>
</g>
<!-- recharge -->
<g id="node2" class="node">
<title>recharge</title>
<polygon fill="none" stroke="black" points="1549,-87 1478,-87 1478,-51 1549,-51 1549,-87"/>
<text text-anchor="middle" x="1513.5" y="-65.3" font-family="Times,serif" font-size="14.00">ReCharge</text>
</g>
<!-- se_cha -->
<g id="node11" class="node">
<title>se_cha</title>
<text text-anchor="middle" x="1513.5" y="-3.8" font-family="Times,serif" font-size="14.00">SE*CHA</text>
</g>
<!-- recharge&#45;&gt;se_cha -->
<g id="edge1" class="edge">
<title>recharge&#45;&gt;se_cha</title>
<path fill="none" stroke="black" d="M1513.5,-50.79C1513.5,-42.77 1513.5,-33.25 1513.5,-25.28"/>
<polygon fill="black" stroke="black" points="1517,-25.06 1513.5,-15.06 1510,-25.06 1517,-25.06"/>
</g>
<!-- incharge -->
<g id="node3" class="node">
<title>incharge</title>
<polygon fill="none" stroke="black" points="2344,-159 2277,-159 2277,-123 2344,-123 2344,-159"/>
<text text-anchor="middle" x="2310.5" y="-137.3" font-family="Times,serif" font-size="14.00">InCharge</text>
</g>
<!-- se_vat -->
<g id="node12" class="node">
<title>se_vat</title>
<text text-anchor="middle" x="2310.5" y="-65.3" font-family="Times,serif" font-size="14.00">SE*VAT</text>
</g>
<!-- incharge&#45;&gt;se_vat -->
<g id="edge2" class="edge">
<title>incharge&#45;&gt;se_vat</title>
<path fill="none" stroke="black" d="M2310.5,-122.7C2310.5,-111.76 2310.5,-97.68 2310.5,-86.83"/>
<polygon fill="black" stroke="black" points="2314,-86.62 2310.5,-76.62 2307,-86.62 2314,-86.62"/>
</g>
<!-- eon -->
<g id="node4" class="node">
<title>eon</title>
<polygon fill="lightgreen" stroke="black" points="70.5,-159 16.5,-159 16.5,-123 70.5,-123 70.5,-159"/>
<text text-anchor="middle" x="43.5" y="-137.3" font-family="Times,serif" font-size="14.00">E.ON</text>
</g>
<!-- virta -->
<g id="node10" class="node">
<title>virta</title>
<polygon fill="none" stroke="black" points="279.5,-87 225.5,-87 225.5,-51 279.5,-51 279.5,-87"/>
<text text-anchor="middle" x="252.5" y="-65.3" font-family="Times,serif" font-size="14.00">Virta</text>
</g>
<!-- eon&#45;&gt;virta -->
<g id="edge22" class="edge">
<title>eon&#45;&gt;virta</title>
<path fill="none" stroke="black" d="M70.84,-126.59C73.74,-125.32 76.66,-124.1 79.5,-123 125.49,-105.2 180.14,-89.3 215.53,-79.66"/>
<polygon fill="black" stroke="black" points="216.68,-82.98 225.42,-77 214.85,-76.22 216.68,-82.98"/>
</g>
<!-- se_edr -->
<g id="node13" class="node">
<title>se_edr</title>
<text text-anchor="middle" x="43.5" y="-65.3" font-family="Times,serif" font-size="14.00">SE*EDR</text>
</g>
<!-- eon&#45;&gt;se_edr -->
<g id="edge3" class="edge">
<title>eon&#45;&gt;se_edr</title>
<path fill="none" stroke="black" d="M43.5,-122.7C43.5,-111.76 43.5,-97.68 43.5,-86.83"/>
<polygon fill="black" stroke="black" points="47,-86.62 43.5,-76.62 40,-86.62 47,-86.62"/>
</g>
<!-- mer -->
<g id="node5" class="node">
<title>mer</title>
<polygon fill="none" stroke="black" points="2066.5,-87 2012.5,-87 2012.5,-51 2066.5,-51 2066.5,-87"/>
<text text-anchor="middle" x="2039.5" y="-65.3" font-family="Times,serif" font-size="14.00">MER </text>
</g>
<!-- se_mer -->
<g id="node15" class="node">
<title>se_mer</title>
<text text-anchor="middle" x="2073.5" y="-3.8" font-family="Times,serif" font-size="14.00">SE*MER</text>
</g>
<!-- mer&#45;&gt;se_mer -->
<g id="edge5" class="edge">
<title>mer&#45;&gt;se_mer</title>
<path fill="none" stroke="black" d="M2049.33,-50.79C2054.19,-42.3 2059.99,-32.14 2064.7,-23.91"/>
<polygon fill="black" stroke="black" points="2067.83,-25.48 2069.75,-15.06 2061.75,-22.01 2067.83,-25.48"/>
</g>
<!-- se_cle -->
<g id="node16" class="node">
<title>se_cle</title>
<text text-anchor="middle" x="2004.5" y="-3.8" font-family="Times,serif" font-size="14.00">SE*CLE</text>
</g>
<!-- mer&#45;&gt;se_cle -->
<g id="edge6" class="edge">
<title>mer&#45;&gt;se_cle</title>
<path fill="none" stroke="black" d="M2029.38,-50.79C2024.38,-42.3 2018.41,-32.14 2013.56,-23.91"/>
<polygon fill="black" stroke="black" points="2016.45,-21.91 2008.36,-15.06 2010.41,-25.45 2016.45,-21.91"/>
</g>
<!-- tesla -->
<g id="node6" class="node">
<title>tesla</title>
<polygon fill="lightblue" stroke="black" points="2533.5,-231 2479.5,-231 2479.5,-195 2533.5,-195 2533.5,-231"/>
<text text-anchor="middle" x="2506.5" y="-209.3" font-family="Times,serif" font-size="14.00">Tesla</text>
</g>
<!-- fortum -->
<g id="node7" class="node">
<title>fortum</title>
<polygon fill="lightgreen" stroke="black" points="1968,-159 1819,-159 1819,-123 1968,-123 1968,-159"/>
<text text-anchor="middle" x="1893.5" y="-137.3" font-family="Times,serif" font-size="14.00">Fortum Charge &amp; Drive</text>
</g>
<!-- fortum&#45;&gt;recharge -->
<g id="edge25" class="edge">
<title>fortum&#45;&gt;recharge</title>
<path fill="none" stroke="black" d="M1818.86,-124.8C1815.7,-124.19 1812.57,-123.59 1809.5,-123 1720.97,-106.12 1617.23,-87.9 1559.06,-77.83"/>
<polygon fill="black" stroke="black" points="1559.54,-74.36 1549.09,-76.11 1558.34,-81.26 1559.54,-74.36"/>
</g>
<!-- se_cnd -->
<g id="node14" class="node">
<title>se_cnd</title>
<text text-anchor="middle" x="1893.5" y="-65.3" font-family="Times,serif" font-size="14.00">SE*CND</text>
</g>
<!-- fortum&#45;&gt;se_cnd -->
<g id="edge4" class="edge">
<title>fortum&#45;&gt;se_cnd</title>
<path fill="none" stroke="black" d="M1893.5,-122.7C1893.5,-111.76 1893.5,-97.68 1893.5,-86.83"/>
<polygon fill="black" stroke="black" points="1897,-86.62 1893.5,-76.62 1890,-86.62 1897,-86.62"/>
</g>
<!-- ufc -->
<g id="node8" class="node">
<title>ufc</title>
<polygon fill="none" stroke="black" points="89,-231 0,-231 0,-195 89,-195 89,-231"/>
<text text-anchor="middle" x="44.5" y="-209.3" font-family="Times,serif" font-size="14.00">UFC Sweden</text>
</g>
<!-- ufc&#45;&gt;eon -->
<g id="edge10" class="edge">
<title>ufc&#45;&gt;eon</title>
<path fill="none" stroke="black" d="M44.25,-194.7C44.14,-186.98 44.01,-177.71 43.89,-169.11"/>
<polygon fill="black" stroke="black" points="47.39,-169.05 43.74,-159.1 40.39,-169.15 47.39,-169.05"/>
</g>
<!-- se_ufc -->
<g id="node18" class="node">
<title>se_ufc</title>
<text text-anchor="middle" x="113.5" y="-137.3" font-family="Times,serif" font-size="14.00">SE*UFC</text>
</g>
<!-- ufc&#45;&gt;se_ufc -->
<g id="edge7" class="edge">
<title>ufc&#45;&gt;se_ufc</title>
<path fill="none" stroke="black" d="M61.56,-194.7C73.37,-182.71 88.9,-166.96 99.89,-155.81"/>
<polygon fill="black" stroke="black" points="102.44,-158.2 106.97,-148.62 97.46,-153.29 102.44,-158.2"/>
</g>
<!-- circlek -->
<g id="node9" class="node">
<title>circlek</title>
<polygon fill="yellow" stroke="black" points="2611.5,-231 2551.5,-231 2551.5,-195 2611.5,-195 2611.5,-231"/>
<text text-anchor="middle" x="2581.5" y="-209.3" font-family="Times,serif" font-size="14.00">CirkleK</text>
</g>
<!-- fi_001 -->
<g id="node19" class="node">
<title>fi_001</title>
<text text-anchor="middle" x="252.5" y="-3.8" font-family="Times,serif" font-size="14.00">FI*001</text>
</g>
<!-- virta&#45;&gt;fi_001 -->
<g id="edge9" class="edge">
<title>virta&#45;&gt;fi_001</title>
<path fill="none" stroke="black" d="M252.5,-50.79C252.5,-42.77 252.5,-33.25 252.5,-25.28"/>
<polygon fill="black" stroke="black" points="256,-25.06 252.5,-15.06 249,-25.06 256,-25.06"/>
</g>
<!-- charge4go -->
<g id="node20" class="node">
<title>charge4go</title>
<polygon fill="none" stroke="black" points="516.58,-141 487.04,-159 427.96,-159 398.42,-141 427.96,-123 487.04,-123 516.58,-141"/>
<text text-anchor="middle" x="457.5" y="-137.3" font-family="Times,serif" font-size="14.00">Charge4Go</text>
</g>
<!-- charge4go&#45;&gt;ionity -->
<g id="edge16" class="edge">
<title>charge4go&#45;&gt;ionity</title>
<path fill="none" stroke="black" d="M498.03,-129.42C507.05,-127.19 516.58,-124.93 525.5,-123 612.73,-104.09 715.78,-86.19 771.91,-76.81"/>
<polygon fill="black" stroke="black" points="772.54,-80.25 781.83,-75.16 771.4,-73.35 772.54,-80.25"/>
</g>
<!-- charge4go&#45;&gt;virta -->
<g id="edge17" class="edge">
<title>charge4go&#45;&gt;virta</title>
<path fill="none" stroke="black" d="M420.38,-127.32C383.25,-114.65 326.49,-95.27 289.43,-82.61"/>
<polygon fill="black" stroke="black" points="290.13,-79.15 279.54,-79.23 287.87,-85.78 290.13,-79.15"/>
</g>
<!-- plugsurfing -->
<g id="node21" class="node">
<title>plugsurfing</title>
<polygon fill="none" stroke="black" points="1800.58,-141 1771.04,-159 1711.96,-159 1682.42,-141 1711.96,-123 1771.04,-123 1800.58,-141"/>
<text text-anchor="middle" x="1741.5" y="-137.3" font-family="Times,serif" font-size="14.00">Plugsurfing</text>
</g>
<!-- plugsurfing&#45;&gt;ionity -->
<g id="edge13" class="edge">
<title>plugsurfing&#45;&gt;ionity</title>
<path fill="none" stroke="black" d="M1697.27,-131.95C1678.31,-128.75 1655.87,-125.29 1635.5,-123 1337.87,-89.61 977.08,-75.38 855.66,-71.31"/>
<polygon fill="black" stroke="black" points="855.44,-67.8 845.33,-70.97 855.21,-74.8 855.44,-67.8"/>
</g>
<!-- plugsurfing&#45;&gt;recharge -->
<g id="edge15" class="edge">
<title>plugsurfing&#45;&gt;recharge</title>
<path fill="none" stroke="black" d="M1703.08,-128.2C1663.25,-115.98 1601.02,-96.87 1558.81,-83.91"/>
<polygon fill="black" stroke="black" points="1559.66,-80.51 1549.07,-80.92 1557.6,-87.2 1559.66,-80.51"/>
</g>
<!-- plugsurfing&#45;&gt;mer -->
<g id="edge14" class="edge">
<title>plugsurfing&#45;&gt;mer</title>
<path fill="none" stroke="black" d="M1782.1,-129.72C1791.11,-127.47 1800.63,-125.13 1809.5,-123 1877.33,-106.71 1956.66,-88.65 2002.19,-78.37"/>
<polygon fill="black" stroke="black" points="2003.21,-81.73 2012.2,-76.12 2001.67,-74.9 2003.21,-81.73"/>
</g>
<!-- statkraft -->
<g id="node22" class="node">
<title>statkraft</title>
<polygon fill="lightgreen" stroke="black" points="2259.23,-146.56 2208.5,-159 2157.77,-146.56 2157.82,-126.44 2259.18,-126.44 2259.23,-146.56"/>
<text text-anchor="middle" x="2208.5" y="-137.3" font-family="Times,serif" font-size="14.00">Statkraft</text>
</g>
<!-- statkraft&#45;&gt;mer -->
<g id="edge20" class="edge">
<title>statkraft&#45;&gt;mer</title>
<path fill="none" stroke="black" d="M2175.51,-126.34C2146.95,-114.5 2105.68,-97.41 2076.1,-85.16"/>
<polygon fill="black" stroke="black" points="2077.13,-81.8 2066.56,-81.21 2074.45,-88.27 2077.13,-81.8"/>
</g>
<!-- skelleftea -->
<g id="node23" class="node">
<title>skelleftea</title>
<polygon fill="lightgreen" stroke="black" points="273.5,-218.56 190.5,-231 107.5,-218.56 107.58,-198.44 273.42,-198.44 273.5,-218.56"/>
<text text-anchor="middle" x="190.5" y="-209.3" font-family="Times,serif" font-size="14.00">Skellefteå Kraft</text>
</g>
<!-- okq8 -->
<g id="node33" class="node">
<title>okq8</title>
<ellipse fill="yellow" stroke="black" cx="190.5" cy="-141" rx="34.39" ry="18"/>
<text text-anchor="middle" x="190.5" y="-137.3" font-family="Times,serif" font-size="14.00">OKQ8</text>
</g>
<!-- skelleftea&#45;&gt;okq8 -->
<g id="edge11" class="edge">
<title>skelleftea&#45;&gt;okq8</title>
<path fill="none" stroke="black" d="M190.5,-198.17C190.5,-189.92 190.5,-179.15 190.5,-169.26"/>
<polygon fill="black" stroke="black" points="194,-169.02 190.5,-159.02 187,-169.02 194,-169.02"/>
</g>
<!-- vattenfall -->
<g id="node24" class="node">
<title>vattenfall</title>
<polygon fill="lightgreen" stroke="black" points="2222.87,-218.56 2167.5,-231 2112.13,-218.56 2112.19,-198.44 2222.81,-198.44 2222.87,-218.56"/>
<text text-anchor="middle" x="2167.5" y="-209.3" font-family="Times,serif" font-size="14.00">Vattenfall</text>
</g>
<!-- vattenfall&#45;&gt;incharge -->
<g id="edge18" class="edge">
<title>vattenfall&#45;&gt;incharge</title>
<path fill="none" stroke="black" d="M2195.41,-198.34C2216.01,-188.26 2244.4,-174.36 2267.83,-162.89"/>
<polygon fill="black" stroke="black" points="2269.43,-166 2276.87,-158.46 2266.35,-159.71 2269.43,-166"/>
</g>
<!-- umea -->
<g id="node25" class="node">
<title>umea</title>
<ellipse fill="lightgreen" stroke="black" cx="2082.5" cy="-141" rx="57.69" ry="18"/>
<text text-anchor="middle" x="2082.5" y="-137.3" font-family="Times,serif" font-size="14.00">Umeå Energi</text>
</g>
<!-- umea&#45;&gt;mer -->
<g id="edge21" class="edge">
<title>umea&#45;&gt;mer</title>
<path fill="none" stroke="black" d="M2072.09,-123.05C2067.09,-114.92 2061,-105 2055.44,-95.94"/>
<polygon fill="black" stroke="black" points="2058.33,-93.96 2050.11,-87.28 2052.36,-97.63 2058.33,-93.96"/>
</g>
<!-- goteborgenergi -->
<g id="node26" class="node">
<title>goteborgenergi</title>
<ellipse fill="lightgreen" stroke="black" cx="2310.5" cy="-213" rx="69.59" ry="18"/>
<text text-anchor="middle" x="2310.5" y="-209.3" font-family="Times,serif" font-size="14.00">Göteborg Energi</text>
</g>
<!-- goteborgenergi&#45;&gt;incharge -->
<g id="edge19" class="edge">
<title>goteborgenergi&#45;&gt;incharge</title>
<path fill="none" stroke="black" d="M2310.5,-194.7C2310.5,-186.98 2310.5,-177.71 2310.5,-169.11"/>
<polygon fill="black" stroke="black" points="2314,-169.1 2310.5,-159.1 2307,-169.1 2314,-169.1"/>
</g>
<!-- vw -->
<g id="node27" class="node">
<title>vw</title>
<polygon fill="lightblue" stroke="black" points="668.36,-146.56 601.5,-159 534.64,-146.56 534.7,-126.44 668.3,-126.44 668.36,-146.56"/>
<text text-anchor="middle" x="601.5" y="-137.3" font-family="Times,serif" font-size="14.00">Volkswagen</text>
</g>
<!-- vw&#45;&gt;ionity -->
<g id="edge30" class="edge">
<title>vw&#45;&gt;ionity</title>
<path fill="none" stroke="black" d="M642.63,-126.42C679.99,-114.08 734.82,-95.98 772.22,-83.63"/>
<polygon fill="black" stroke="black" points="773.41,-86.92 781.81,-80.46 771.22,-80.28 773.41,-86.92"/>
</g>
<!-- ford -->
<g id="node28" class="node">
<title>ford</title>
<polygon fill="lightblue" stroke="black" points="753.49,-146.56 719.5,-159 685.51,-146.56 685.55,-126.44 753.45,-126.44 753.49,-146.56"/>
<text text-anchor="middle" x="719.5" y="-137.3" font-family="Times,serif" font-size="14.00">Ford</text>
</g>
<!-- ford&#45;&gt;ionity -->
<g id="edge31" class="edge">
<title>ford&#45;&gt;ionity</title>
<path fill="none" stroke="black" d="M738.07,-126.17C750.68,-116.78 767.67,-104.13 782.33,-93.21"/>
<polygon fill="black" stroke="black" points="784.72,-95.8 790.65,-87.02 780.53,-90.18 784.72,-95.8"/>
</g>
<!-- daimler -->
<g id="node29" class="node">
<title>daimler</title>
<polygon fill="lightblue" stroke="black" points="973.12,-146.56 923.5,-159 873.88,-146.56 873.93,-126.44 973.07,-126.44 973.12,-146.56"/>
<text text-anchor="middle" x="923.5" y="-137.3" font-family="Times,serif" font-size="14.00">Daimler</text>
</g>
<!-- daimler&#45;&gt;ionity -->
<g id="edge32" class="edge">
<title>daimler&#45;&gt;ionity</title>
<path fill="none" stroke="black" d="M902.03,-126.34C887.02,-116.78 866.61,-103.8 849.17,-92.7"/>
<polygon fill="black" stroke="black" points="850.69,-89.52 840.37,-87.1 846.93,-95.42 850.69,-89.52"/>
</g>
<!-- bmw -->
<g id="node30" class="node">
<title>bmw</title>
<polygon fill="lightblue" stroke="black" points="855.05,-146.56 813.5,-159 771.95,-146.56 771.99,-126.44 855.01,-126.44 855.05,-146.56"/>
<text text-anchor="middle" x="813.5" y="-137.3" font-family="Times,serif" font-size="14.00">BMW</text>
</g>
<!-- bmw&#45;&gt;ionity -->
<g id="edge33" class="edge">
<title>bmw&#45;&gt;ionity</title>
<path fill="none" stroke="black" d="M813.5,-126.17C813.5,-117.92 813.5,-107.15 813.5,-97.26"/>
<polygon fill="black" stroke="black" points="817,-97.02 813.5,-87.02 810,-97.02 817,-97.02"/>
</g>
<!-- mcd -->
<g id="node31" class="node">
<title>mcd</title>
<ellipse fill="none" stroke="black" cx="1163.5" cy="-141" rx="51.99" ry="18"/>
<text text-anchor="middle" x="1163.5" y="-137.3" font-family="Times,serif" font-size="14.00">McDonalds</text>
</g>
<!-- mcd&#45;&gt;recharge -->
<g id="edge28" class="edge">
<title>mcd&#45;&gt;recharge</title>
<path fill="none" stroke="black" d="M1201.76,-128.77C1209.27,-126.72 1217.11,-124.7 1224.5,-123 1309.67,-103.37 1410.29,-86.27 1467.52,-77.11"/>
<polygon fill="black" stroke="black" points="1468.37,-80.52 1477.69,-75.5 1467.27,-73.61 1468.37,-80.52"/>
</g>
<!-- max -->
<g id="node32" class="node">
<title>max</title>
<ellipse fill="none" stroke="black" cx="2429.5" cy="-213" rx="31.7" ry="18"/>
<text text-anchor="middle" x="2429.5" y="-209.3" font-family="Times,serif" font-size="14.00">MAX</text>
</g>
<!-- max&#45;&gt;incharge -->
<g id="edge34" class="edge">
<title>max&#45;&gt;incharge</title>
<path fill="none" stroke="black" d="M2408.23,-199.49C2391.64,-189.73 2368.2,-175.94 2348.42,-164.31"/>
<polygon fill="black" stroke="black" points="2350.03,-161.19 2339.64,-159.14 2346.48,-167.23 2350.03,-161.19"/>
</g>
<!-- okq8&#45;&gt;virta -->
<g id="edge23" class="edge">
<title>okq8&#45;&gt;virta</title>
<path fill="none" stroke="black" d="M204.26,-124.46C211.92,-115.82 221.63,-104.85 230.33,-95.03"/>
<polygon fill="black" stroke="black" points="233.02,-97.27 237.03,-87.46 227.78,-92.63 233.02,-97.27"/>
</g>
<!-- st1 -->
<g id="node34" class="node">
<title>st1</title>
<ellipse fill="yellow" stroke="black" cx="1513.5" cy="-141" rx="27" ry="18"/>
<text text-anchor="middle" x="1513.5" y="-137.3" font-family="Times,serif" font-size="14.00">ST1</text>
</g>
<!-- st1&#45;&gt;recharge -->
<g id="edge27" class="edge">
<title>st1&#45;&gt;recharge</title>
<path fill="none" stroke="black" d="M1513.5,-122.7C1513.5,-114.98 1513.5,-105.71 1513.5,-97.11"/>
<polygon fill="black" stroke="black" points="1517,-97.1 1513.5,-87.1 1510,-97.1 1517,-97.1"/>
</g>
<!-- preem -->
<g id="node35" class="node">
<title>preem</title>
<ellipse fill="yellow" stroke="black" cx="1592.5" cy="-141" rx="33.6" ry="18"/>
<text text-anchor="middle" x="1592.5" y="-137.3" font-family="Times,serif" font-size="14.00">Preem</text>
</g>
<!-- preem&#45;&gt;recharge -->
<g id="edge26" class="edge">
<title>preem&#45;&gt;recharge</title>
<path fill="none" stroke="black" d="M1575.75,-125.15C1565.52,-116.09 1552.2,-104.29 1540.51,-93.93"/>
<polygon fill="black" stroke="black" points="1542.54,-91.05 1532.73,-87.04 1537.89,-96.29 1542.54,-91.05"/>
</g>
<!-- tovek -->
<g id="node36" class="node">
<title>tovek</title>
<ellipse fill="none" stroke="black" cx="330.5" cy="-141" rx="50.09" ry="18"/>
<text text-anchor="middle" x="330.5" y="-137.3" font-family="Times,serif" font-size="14.00">Toveks Bil</text>
</g>
<!-- tovek&#45;&gt;virta -->
<g id="edge24" class="edge">
<title>tovek&#45;&gt;virta</title>
<path fill="none" stroke="black" d="M312.8,-124.12C302.89,-115.22 290.33,-103.95 279.25,-94"/>
<polygon fill="black" stroke="black" points="281.27,-91.12 271.49,-87.04 276.6,-96.33 281.27,-91.12"/>
</g>
<!-- polestar -->
<g id="node37" class="node">
<title>polestar</title>
<ellipse fill="lightblue" stroke="black" cx="1741.5" cy="-213" rx="38.99" ry="18"/>
<text text-anchor="middle" x="1741.5" y="-209.3" font-family="Times,serif" font-size="14.00">Polestar</text>
</g>
<!-- polestar&#45;&gt;plugsurfing -->
<g id="edge12" class="edge">
<title>polestar&#45;&gt;plugsurfing</title>
<path fill="none" stroke="black" d="M1741.5,-194.7C1741.5,-186.98 1741.5,-177.71 1741.5,-169.11"/>
<polygon fill="black" stroke="black" points="1745,-169.1 1741.5,-159.1 1738,-169.1 1745,-169.1"/>
</g>
<!-- porsche -->
<g id="node38" class="node">
<title>porsche</title>
<ellipse fill="lightblue" stroke="black" cx="601.5" cy="-213" rx="102.88" ry="18"/>
<text text-anchor="middle" x="601.5" y="-209.3" font-family="Times,serif" font-size="14.00">Porsche Charging Service</text>
</g>
<!-- porsche&#45;&gt;mer -->
<g id="edge42" class="edge">
<title>porsche&#45;&gt;mer</title>
<path fill="none" stroke="black" d="M701.45,-208.73C1015.49,-198.38 1962.49,-166.59 1976.5,-159 2001.36,-145.53 2018.65,-117.48 2028.75,-96.46"/>
<polygon fill="black" stroke="black" points="2032.06,-97.63 2033.01,-87.08 2025.69,-94.74 2032.06,-97.63"/>
</g>
<!-- porsche&#45;&gt;virta -->
<g id="edge41" class="edge">
<title>porsche&#45;&gt;virta</title>
<path fill="none" stroke="black" d="M502.33,-208.17C417.46,-202.79 304,-189.88 271.5,-159 255,-143.32 251.05,-117.09 250.76,-97.16"/>
<polygon fill="black" stroke="black" points="254.26,-97.17 250.9,-87.12 247.26,-97.07 254.26,-97.17"/>
</g>
<!-- porsche&#45;&gt;vw -->
<g id="edge40" class="edge">
<title>porsche&#45;&gt;vw</title>
<path fill="none" stroke="black" d="M601.5,-194.7C601.5,-186.98 601.5,-177.71 601.5,-169.11"/>
<polygon fill="black" stroke="black" points="605,-169.1 601.5,-159.1 598,-169.1 605,-169.1"/>
</g>
<!-- elli -->
<g id="node39" class="node">
<title>elli</title>
<ellipse fill="lightblue" stroke="black" cx="1042.5" cy="-141" rx="50.89" ry="18"/>
<text text-anchor="middle" x="1042.5" y="-137.3" font-family="Times,serif" font-size="14.00">We Charge</text>
</g>
<!-- elli&#45;&gt;ionity -->
<g id="edge37" class="edge">
<title>elli&#45;&gt;ionity</title>
<path fill="none" stroke="black" d="M1005.45,-128.68C964.23,-116.08 897.8,-95.77 854.9,-82.65"/>
<polygon fill="black" stroke="black" points="855.91,-79.3 845.32,-79.73 853.86,-86 855.91,-79.3"/>
</g>
<!-- elli&#45;&gt;recharge -->
<g id="edge36" class="edge">
<title>elli&#45;&gt;recharge</title>
<path fill="none" stroke="black" d="M1079.42,-128.62C1087,-126.54 1094.97,-124.54 1102.5,-123 1233.59,-96.13 1391.16,-80.33 1467.52,-73.69"/>
<polygon fill="black" stroke="black" points="1468.08,-77.16 1477.75,-72.82 1467.49,-70.18 1468.08,-77.16"/>
</g>
<!-- mercedes -->
<g id="node40" class="node">
<title>mercedes</title>
<ellipse fill="lightblue" stroke="black" cx="1259.5" cy="-213" rx="87.99" ry="18"/>
<text text-anchor="middle" x="1259.5" y="-209.3" font-family="Times,serif" font-size="14.00">Mercedes Me Charge</text>
</g>
<!-- mercedes&#45;&gt;recharge -->
<g id="edge38" class="edge">
<title>mercedes&#45;&gt;recharge</title>
<path fill="none" stroke="black" d="M1347.6,-212.37C1446.8,-210.68 1598.96,-201.05 1635.5,-159 1645.99,-146.92 1644.27,-136.38 1635.5,-123 1618.65,-97.32 1586.38,-84.01 1559.26,-77.16"/>
<polygon fill="black" stroke="black" points="1559.69,-73.67 1549.16,-74.84 1558.12,-80.49 1559.69,-73.67"/>
</g>
<!-- mercedes&#45;&gt;daimler -->
<g id="edge39" class="edge">
<title>mercedes&#45;&gt;daimler</title>
<path fill="none" stroke="black" d="M1193.38,-201.1C1137.03,-191.4 1054.05,-176.11 982.5,-159 976.59,-157.59 970.38,-155.96 964.31,-154.28"/>
<polygon fill="black" stroke="black" points="964.86,-150.8 954.29,-151.45 962.96,-157.54 964.86,-150.8"/>
</g>
<!-- newmotion -->
<g id="node41" class="node">
<title>newmotion</title>
<ellipse fill="yellow" stroke="black" cx="1297.5" cy="-141" rx="64.19" ry="18"/>
<text text-anchor="middle" x="1297.5" y="-137.3" font-family="Times,serif" font-size="14.00">Shell Recharge</text>
</g>
<!-- newmotion&#45;&gt;recharge -->
<g id="edge35" class="edge">
<title>newmotion&#45;&gt;recharge</title>
<path fill="none" stroke="black" d="M1337.87,-126.92C1374.86,-114.93 1429.56,-97.2 1468.07,-84.72"/>
<polygon fill="black" stroke="black" points="1469.54,-87.92 1477.98,-81.51 1467.38,-81.27 1469.54,-87.92"/>
</g>
<!-- easypark -->
<g id="node42" class="node">
<title>easypark</title>
<ellipse fill="none" stroke="black" cx="1424.5" cy="-141" rx="44.39" ry="18"/>
<text text-anchor="middle" x="1424.5" y="-137.3" font-family="Times,serif" font-size="14.00">EasyPark</text>
</g>
<!-- easypark&#45;&gt;recharge -->
<g id="edge29" class="edge">
<title>easypark&#45;&gt;recharge</title>
<path fill="none" stroke="black" d="M1444.25,-124.46C1455.76,-115.41 1470.51,-103.81 1483.44,-93.64"/>
<polygon fill="black" stroke="black" points="1485.92,-96.14 1491.62,-87.21 1481.59,-90.64 1485.92,-96.14"/>
</g>
</g>
</svg>
