<?xml version="1.0" encoding="UTF-8" standalone="no"?>
<!DOCTYPE svg PUBLIC "-//W3C//DTD SVG 1.1//EN"
 "http://www.w3.org/Graphics/SVG/1.1/DTD/svg11.dtd">
<!-- Generated by graphviz version 2.50.0 (20211204.2007)
 -->
<!-- Pages: 1 -->
<svg width="1824pt" height="2001pt"
 viewBox="0.00 0.00 1824.16 2000.87" xmlns="http://www.w3.org/2000/svg" xmlns:xlink="http://www.w3.org/1999/xlink">
<g id="graph0" class="graph" transform="scale(1 1) rotate(0) translate(4 1996.87)">
<polygon fill="white" stroke="transparent" points="-4,4 -4,-1996.87 1820.16,-1996.87 1820.16,4 -4,4"/>
<!-- ionity -->
<g id="node1" class="node">
<title>ionity</title>
<polygon fill="darkorange" stroke="black" points="451.98,-1352.61 388.98,-1352.61 388.98,-1316.61 451.98,-1316.61 451.98,-1352.61"/>
<text text-anchor="middle" x="420.48" y="-1330.91" font-family="Times,serif" font-size="14.00">IONITY</text>
</g>
<!-- se_ion -->
<g id="node20" class="node">
<title>se_ion</title>
<text text-anchor="middle" x="181.94" y="-1638.3" font-family="Times,serif" font-size="14.00">SE*ION</text>
</g>
<!-- ionity&#45;&gt;se_ion -->
<g id="edge8" class="edge">
<title>ionity&#45;&gt;se_ion</title>
<path fill="none" stroke="black" d="M406.27,-1352.91C363.13,-1408.51 234.12,-1574.75 193.99,-1626.47"/>
<polygon fill="black" stroke="black" points="191.13,-1624.45 187.76,-1634.49 196.66,-1628.74 191.13,-1624.45"/>
</g>
<!-- recharge -->
<g id="node2" class="node">
<title>recharge</title>
<polygon fill="darkorange" stroke="black" points="1557.76,-1057.38 1486.76,-1057.38 1486.76,-1021.38 1557.76,-1021.38 1557.76,-1057.38"/>
<text text-anchor="middle" x="1522.26" y="-1035.68" font-family="Times,serif" font-size="14.00">ReCharge</text>
</g>
<!-- se_cha -->
<g id="node14" class="node">
<title>se_cha</title>
<text text-anchor="middle" x="1577.23" y="-564.78" font-family="Times,serif" font-size="14.00">SE*CHA</text>
</g>
<!-- recharge&#45;&gt;se_cha -->
<g id="edge1" class="edge">
<title>recharge&#45;&gt;se_cha</title>
<path fill="none" stroke="black" d="M1524.38,-1021.21C1533.14,-946.13 1566.49,-660.52 1575.16,-586.23"/>
<polygon fill="black" stroke="black" points="1578.65,-586.53 1576.33,-576.19 1571.69,-585.71 1578.65,-586.53"/>
</g>
<!-- incharge -->
<g id="node3" class="node">
<title>incharge</title>
<polygon fill="darkorange" stroke="black" points="1212.32,-988.38 1145.32,-988.38 1145.32,-952.38 1212.32,-952.38 1212.32,-988.38"/>
<text text-anchor="middle" x="1178.82" y="-966.68" font-family="Times,serif" font-size="14.00">InCharge</text>
</g>
<!-- se_vat -->
<g id="node15" class="node">
<title>se_vat</title>
<text text-anchor="middle" x="1353.86" y="-966.68" font-family="Times,serif" font-size="14.00">SE*VAT</text>
</g>
<!-- incharge&#45;&gt;se_vat -->
<g id="edge2" class="edge">
<title>incharge&#45;&gt;se_vat</title>
<path fill="none" stroke="black" d="M1212.57,-970.38C1243.31,-970.38 1288.52,-970.38 1319.47,-970.38"/>
<polygon fill="black" stroke="black" points="1319.77,-973.89 1329.77,-970.38 1319.77,-966.89 1319.77,-973.89"/>
</g>
<!-- eon -->
<g id="node4" class="node">
<title>eon</title>
<polygon fill="lightgreen" stroke="black" points="297.63,-345.68 243.63,-345.68 243.63,-309.68 297.63,-309.68 297.63,-345.68"/>
<text text-anchor="middle" x="270.63" y="-323.98" font-family="Times,serif" font-size="14.00">E.ON</text>
</g>
<!-- virta -->
<g id="node11" class="node">
<title>virta</title>
<polygon fill="darkorange" stroke="black" points="663.59,-546.05 609.59,-546.05 609.59,-510.05 663.59,-510.05 663.59,-546.05"/>
<text text-anchor="middle" x="636.59" y="-524.35" font-family="Times,serif" font-size="14.00">Virta</text>
</g>
<!-- eon&#45;&gt;virta -->
<g id="edge23" class="edge">
<title>eon&#45;&gt;virta</title>
<path fill="none" stroke="black" d="M297.84,-342.57C362.81,-378.15 527.04,-468.06 600.32,-508.19"/>
<polygon fill="black" stroke="black" points="598.76,-511.32 609.21,-513.05 602.12,-505.18 598.76,-511.32"/>
</g>
<!-- se_edr -->
<g id="node16" class="node">
<title>se_edr</title>
<text text-anchor="middle" x="121.17" y="-462.82" font-family="Times,serif" font-size="14.00">SE*EDR</text>
</g>
<!-- eon&#45;&gt;se_edr -->
<g id="edge3" class="edge">
<title>eon&#45;&gt;se_edr</title>
<path fill="none" stroke="black" d="M251.09,-345.83C221.12,-373.67 164.38,-426.38 136.89,-451.92"/>
<polygon fill="black" stroke="black" points="134.3,-449.55 129.36,-458.92 139.06,-454.68 134.3,-449.55"/>
</g>
<!-- mer -->
<g id="node5" class="node">
<title>mer</title>
<polygon fill="darkorange" stroke="black" points="663.59,-1568.72 609.59,-1568.72 609.59,-1532.72 663.59,-1532.72 663.59,-1568.72"/>
<text text-anchor="middle" x="636.59" y="-1547.02" font-family="Times,serif" font-size="14.00">MER </text>
</g>
<!-- se_mer -->
<g id="node18" class="node">
<title>se_mer</title>
<text text-anchor="middle" x="661.11" y="-1981.67" font-family="Times,serif" font-size="14.00">SE*MER</text>
</g>
<!-- mer&#45;&gt;se_mer -->
<g id="edge5" class="edge">
<title>mer&#45;&gt;se_mer</title>
<path fill="none" stroke="black" d="M637.62,-1568.85C641.61,-1639.62 656.12,-1896.94 660.1,-1967.42"/>
<polygon fill="black" stroke="black" points="656.62,-1967.91 660.68,-1977.7 663.61,-1967.52 656.62,-1967.91"/>
</g>
<!-- se_cle -->
<g id="node19" class="node">
<title>se_cle</title>
<text text-anchor="middle" x="545.28" y="-1940.54" font-family="Times,serif" font-size="14.00">SE*CLE</text>
</g>
<!-- mer&#45;&gt;se_cle -->
<g id="edge6" class="edge">
<title>mer&#45;&gt;se_cle</title>
<path fill="none" stroke="black" d="M632.37,-1568.91C617.05,-1634.93 564.49,-1861.45 549.37,-1926.59"/>
<polygon fill="black" stroke="black" points="545.92,-1925.97 547.07,-1936.51 552.74,-1927.56 545.92,-1925.97"/>
</g>
<!-- allego -->
<g id="node6" class="node">
<title>allego</title>
<polygon fill="darkorange" stroke="black" points="1145.82,-816.38 1091.82,-816.38 1091.82,-780.38 1145.82,-780.38 1145.82,-816.38"/>
<text text-anchor="middle" x="1118.82" y="-794.68" font-family="Times,serif" font-size="14.00">Allego</text>
</g>
<!-- tesla -->
<g id="node7" class="node">
<title>tesla</title>
<polygon fill="lightblue" stroke="black" points="1067.82,-1284.38 1013.82,-1284.38 1013.82,-1248.38 1067.82,-1248.38 1067.82,-1284.38"/>
<text text-anchor="middle" x="1040.82" y="-1262.68" font-family="Times,serif" font-size="14.00">Tesla</text>
</g>
<!-- fortum -->
<g id="node8" class="node">
<title>fortum</title>
<polygon fill="lightgreen" stroke="black" points="1701.85,-813.84 1552.85,-813.84 1552.85,-777.84 1701.85,-777.84 1701.85,-813.84"/>
<text text-anchor="middle" x="1627.35" y="-792.14" font-family="Times,serif" font-size="14.00">Fortum Charge &amp; Drive</text>
</g>
<!-- fortum&#45;&gt;recharge -->
<g id="edge26" class="edge">
<title>fortum&#45;&gt;recharge</title>
<path fill="none" stroke="black" d="M1619.45,-814.15C1601.15,-856.56 1555.75,-961.77 1534.1,-1011.94"/>
<polygon fill="black" stroke="black" points="1530.85,-1010.63 1530.1,-1021.2 1537.28,-1013.4 1530.85,-1010.63"/>
</g>
<!-- se_cnd -->
<g id="node17" class="node">
<title>se_cnd</title>
<text text-anchor="middle" x="1790.16" y="-735.14" font-family="Times,serif" font-size="14.00">SE*CND</text>
</g>
<!-- fortum&#45;&gt;se_cnd -->
<g id="edge4" class="edge">
<title>fortum&#45;&gt;se_cnd</title>
<path fill="none" stroke="black" d="M1678.86,-777.81C1705.16,-768.6 1736.28,-757.7 1758.92,-749.77"/>
<polygon fill="black" stroke="black" points="1760.09,-753.07 1768.37,-746.46 1757.78,-746.47 1760.09,-753.07"/>
</g>
<!-- ufc -->
<g id="node9" class="node">
<title>ufc</title>
<polygon fill="none" stroke="black" points="420.26,-248.01 331.26,-248.01 331.26,-212.01 420.26,-212.01 420.26,-248.01"/>
<text text-anchor="middle" x="375.76" y="-226.31" font-family="Times,serif" font-size="14.00">UFC Sweden</text>
</g>
<!-- ufc&#45;&gt;eon -->
<g id="edge11" class="edge">
<title>ufc&#45;&gt;eon</title>
<path fill="none" stroke="black" d="M355.99,-248.38C339.54,-263.66 315.96,-285.56 297.75,-302.48"/>
<polygon fill="black" stroke="black" points="295.26,-300.02 290.31,-309.39 300.02,-305.14 295.26,-300.02"/>
</g>
<!-- se_ufc -->
<g id="node21" class="node">
<title>se_ufc</title>
<text text-anchor="middle" x="479.06" y="-130.34" font-family="Times,serif" font-size="14.00">SE*UFC</text>
</g>
<!-- ufc&#45;&gt;se_ufc -->
<g id="edge7" class="edge">
<title>ufc&#45;&gt;se_ufc</title>
<path fill="none" stroke="black" d="M395.19,-211.95C414.86,-193.69 444.9,-165.78 463.18,-148.79"/>
<polygon fill="black" stroke="black" points="465.73,-151.2 470.68,-141.83 460.97,-146.07 465.73,-151.2"/>
</g>
<!-- circlek -->
<g id="node10" class="node">
<title>circlek</title>
<polygon fill="yellow" stroke="black" points="917.82,-1284.38 857.82,-1284.38 857.82,-1248.38 917.82,-1248.38 917.82,-1284.38"/>
<text text-anchor="middle" x="887.82" y="-1262.68" font-family="Times,serif" font-size="14.00">CirkleK</text>
</g>
<!-- fi_001 -->
<g id="node23" class="node">
<title>fi_001</title>
<text text-anchor="middle" x="40.65" y="-649" font-family="Times,serif" font-size="14.00">FI*001</text>
</g>
<!-- virta&#45;&gt;fi_001 -->
<g id="edge9" class="edge">
<title>virta&#45;&gt;fi_001</title>
<path fill="none" stroke="black" d="M609.44,-533.73C511.13,-554.29 174.21,-624.76 70.97,-646.36"/>
<polygon fill="black" stroke="black" points="69.98,-642.99 60.9,-648.46 71.41,-649.84 69.98,-642.99"/>
</g>
<!-- evcore -->
<g id="node12" class="node">
<title>evcore</title>
<polygon fill="darkorange" stroke="black" points="759.82,-1284.38 701.82,-1284.38 701.82,-1248.38 759.82,-1248.38 759.82,-1284.38"/>
<text text-anchor="middle" x="730.82" y="-1262.68" font-family="Times,serif" font-size="14.00">EVcore</text>
</g>
<!-- parkncharge -->
<g id="node13" class="node">
<title>parkncharge</title>
<polygon fill="darkorange" stroke="black" points="956.82,-1128.38 857.82,-1128.38 857.82,-1092.38 956.82,-1092.38 956.82,-1128.38"/>
<text text-anchor="middle" x="907.32" y="-1106.68" font-family="Times,serif" font-size="14.00">Park &amp; Charge</text>
</g>
<!-- se_pcs -->
<g id="node22" class="node">
<title>se_pcs</title>
<text text-anchor="middle" x="1052.32" y="-1106.68" font-family="Times,serif" font-size="14.00">SE*PCS</text>
</g>
<!-- parkncharge&#45;&gt;se_pcs -->
<g id="edge10" class="edge">
<title>parkncharge&#45;&gt;se_pcs</title>
<path fill="none" stroke="black" d="M957.22,-1110.38C977.49,-1110.38 1000.38,-1110.38 1018.62,-1110.38"/>
<polygon fill="black" stroke="black" points="1018.77,-1113.89 1028.77,-1110.38 1018.77,-1106.89 1018.77,-1113.89"/>
</g>
<!-- charge4go -->
<g id="node24" class="node">
<title>charge4go</title>
<polygon fill="none" stroke="black" points="990.89,-448.94 961.35,-466.94 902.28,-466.94 872.74,-448.94 902.28,-430.94 961.35,-430.94 990.89,-448.94"/>
<text text-anchor="middle" x="931.82" y="-445.24" font-family="Times,serif" font-size="14.00">Charge4Go</text>
</g>
<!-- charge4go&#45;&gt;ionity -->
<g id="edge17" class="edge">
<title>charge4go&#45;&gt;ionity</title>
<path fill="none" stroke="black" d="M921.37,-467.04C856.91,-578.67 513.5,-1173.48 436.02,-1307.69"/>
<polygon fill="black" stroke="black" points="432.88,-1306.13 430.91,-1316.54 438.94,-1309.63 432.88,-1306.13"/>
</g>
<!-- charge4go&#45;&gt;virta -->
<g id="edge18" class="edge">
<title>charge4go&#45;&gt;virta</title>
<path fill="none" stroke="black" d="M890.77,-459.94C833.04,-475.41 728.77,-503.35 673.43,-518.18"/>
<polygon fill="black" stroke="black" points="672.44,-514.82 663.68,-520.79 674.25,-521.58 672.44,-514.82"/>
</g>
<!-- plugsurfing -->
<g id="node25" class="node">
<title>plugsurfing</title>
<polygon fill="none" stroke="black" points="991.89,-1629.83 961.85,-1647.83 901.78,-1647.83 871.74,-1629.83 901.78,-1611.83 961.85,-1611.83 991.89,-1629.83"/>
<text text-anchor="middle" x="931.82" y="-1626.13" font-family="Times,serif" font-size="14.00">Plugsurfing</text>
</g>
<!-- plugsurfing&#45;&gt;ionity -->
<g id="edge14" class="edge">
<title>plugsurfing&#45;&gt;ionity</title>
<path fill="none" stroke="black" d="M900.98,-1612.02C812.72,-1561.07 559.15,-1414.67 460.46,-1357.69"/>
<polygon fill="black" stroke="black" points="462.09,-1354.59 451.68,-1352.62 458.59,-1360.65 462.09,-1354.59"/>
</g>
<!-- plugsurfing&#45;&gt;recharge -->
<g id="edge16" class="edge">
<title>plugsurfing&#45;&gt;recharge</title>
<path fill="none" stroke="black" d="M950.13,-1611.51C1035.88,-1525.76 1397.61,-1164.03 1496.93,-1064.71"/>
<polygon fill="black" stroke="black" points="1499.56,-1067.04 1504.15,-1057.49 1494.61,-1062.09 1499.56,-1067.04"/>
</g>
<!-- plugsurfing&#45;&gt;mer -->
<g id="edge15" class="edge">
<title>plugsurfing&#45;&gt;mer</title>
<path fill="none" stroke="black" d="M890.14,-1618.66C832.39,-1603.18 728.9,-1575.45 673.68,-1560.66"/>
<polygon fill="black" stroke="black" points="674.52,-1557.26 663.96,-1558.05 672.71,-1564.02 674.52,-1557.26"/>
</g>
<!-- statkraft -->
<g id="node26" class="node">
<title>statkraft</title>
<polygon fill="lightgreen" stroke="black" points="465.53,-1882.13 414.81,-1894.57 364.08,-1882.13 364.13,-1862 465.49,-1862 465.53,-1882.13"/>
<text text-anchor="middle" x="414.81" y="-1872.87" font-family="Times,serif" font-size="14.00">Statkraft</text>
</g>
<!-- statkraft&#45;&gt;mer -->
<g id="edge21" class="edge">
<title>statkraft&#45;&gt;mer</title>
<path fill="none" stroke="black" d="M424.91,-1861.72C459.55,-1810.83 573.81,-1642.96 618.47,-1577.34"/>
<polygon fill="black" stroke="black" points="621.57,-1579.02 624.3,-1568.79 615.78,-1575.08 621.57,-1579.02"/>
</g>
<!-- skelleftea -->
<g id="node27" class="node">
<title>skelleftea</title>
<polygon fill="lightgreen" stroke="black" points="809.13,-23.56 726.13,-36 643.14,-23.56 643.22,-3.44 809.05,-3.44 809.13,-23.56"/>
<text text-anchor="middle" x="726.13" y="-14.3" font-family="Times,serif" font-size="14.00">Skellefteå Kraft</text>
</g>
<!-- okq8 -->
<g id="node37" class="node">
<title>okq8</title>
<ellipse fill="yellow" stroke="black" cx="763.48" cy="-203.47" rx="34.39" ry="18"/>
<text text-anchor="middle" x="763.48" y="-199.77" font-family="Times,serif" font-size="14.00">OKQ8</text>
</g>
<!-- skelleftea&#45;&gt;okq8 -->
<g id="edge12" class="edge">
<title>skelleftea&#45;&gt;okq8</title>
<path fill="none" stroke="black" d="M729.72,-35.78C736.22,-68.11 750.04,-136.71 757.83,-175.4"/>
<polygon fill="black" stroke="black" points="754.45,-176.36 759.86,-185.47 761.32,-174.97 754.45,-176.36"/>
</g>
<!-- vattenfall -->
<g id="node28" class="node">
<title>vattenfall</title>
<polygon fill="lightgreen" stroke="black" points="1245.15,-1150.65 1189.79,-1163.08 1134.42,-1150.65 1134.47,-1130.52 1245.1,-1130.52 1245.15,-1150.65"/>
<text text-anchor="middle" x="1189.79" y="-1141.38" font-family="Times,serif" font-size="14.00">Vattenfall</text>
</g>
<!-- vattenfall&#45;&gt;incharge -->
<g id="edge19" class="edge">
<title>vattenfall&#45;&gt;incharge</title>
<path fill="none" stroke="black" d="M1188.87,-1130.49C1187.05,-1101.53 1182.96,-1036.35 1180.59,-998.7"/>
<polygon fill="black" stroke="black" points="1184.07,-998.17 1179.95,-988.41 1177.08,-998.61 1184.07,-998.17"/>
</g>
<!-- umea -->
<g id="node29" class="node">
<title>umea</title>
<ellipse fill="lightgreen" stroke="black" cx="270.8" cy="-1768.24" rx="57.69" ry="18"/>
<text text-anchor="middle" x="270.8" y="-1764.54" font-family="Times,serif" font-size="14.00">Umeå Energi</text>
</g>
<!-- umea&#45;&gt;mer -->
<g id="edge22" class="edge">
<title>umea&#45;&gt;mer</title>
<path fill="none" stroke="black" d="M297.7,-1752.24C362.41,-1713.76 526.86,-1615.98 600.26,-1572.33"/>
<polygon fill="black" stroke="black" points="602.35,-1575.16 609.16,-1567.04 598.78,-1569.14 602.35,-1575.16"/>
</g>
<!-- goteborgenergi -->
<g id="node30" class="node">
<title>goteborgenergi</title>
<ellipse fill="lightgreen" stroke="black" cx="1005.36" cy="-946.87" rx="69.59" ry="18"/>
<text text-anchor="middle" x="1005.36" y="-943.17" font-family="Times,serif" font-size="14.00">Göteborg Energi</text>
</g>
<!-- goteborgenergi&#45;&gt;incharge -->
<g id="edge20" class="edge">
<title>goteborgenergi&#45;&gt;incharge</title>
<path fill="none" stroke="black" d="M1067,-955.23C1089.49,-958.28 1114.45,-961.66 1135.06,-964.45"/>
<polygon fill="black" stroke="black" points="1134.73,-967.94 1145.11,-965.82 1135.67,-961 1134.73,-967.94"/>
</g>
<!-- vw -->
<g id="node31" class="node">
<title>vw</title>
<polygon fill="lightblue" stroke="black" points="408.23,-1044.95 341.37,-1057.38 274.51,-1044.95 274.58,-1024.82 408.17,-1024.82 408.23,-1044.95"/>
<text text-anchor="middle" x="341.37" y="-1035.68" font-family="Times,serif" font-size="14.00">Volkswagen</text>
</g>
<!-- vw&#45;&gt;ionity -->
<g id="edge32" class="edge">
<title>vw&#45;&gt;ionity</title>
<path fill="none" stroke="black" d="M345.97,-1056.53C359.06,-1105.41 396.68,-1245.77 412.89,-1306.29"/>
<polygon fill="black" stroke="black" points="409.6,-1307.53 415.57,-1316.29 416.36,-1305.72 409.6,-1307.53"/>
</g>
<!-- ford -->
<g id="node32" class="node">
<title>ford</title>
<polygon fill="lightblue" stroke="black" points="141.97,-1541.69 107.98,-1554.13 74,-1541.69 74.03,-1521.56 141.94,-1521.56 141.97,-1541.69"/>
<text text-anchor="middle" x="107.98" y="-1532.43" font-family="Times,serif" font-size="14.00">Ford</text>
</g>
<!-- ford&#45;&gt;ionity -->
<g id="edge33" class="edge">
<title>ford&#45;&gt;ionity</title>
<path fill="none" stroke="black" d="M130.71,-1521.47C184.23,-1486.96 318.6,-1400.3 383.82,-1358.24"/>
<polygon fill="black" stroke="black" points="386.05,-1360.97 392.55,-1352.61 382.25,-1355.09 386.05,-1360.97"/>
</g>
<!-- daimler -->
<g id="node33" class="node">
<title>daimler</title>
<polygon fill="lightblue" stroke="black" points="1276.65,-533.61 1227.04,-546.05 1177.42,-533.61 1177.46,-513.49 1276.61,-513.49 1276.65,-533.61"/>
<text text-anchor="middle" x="1227.04" y="-524.35" font-family="Times,serif" font-size="14.00">Daimler</text>
</g>
<!-- daimler&#45;&gt;ionity -->
<g id="edge34" class="edge">
<title>daimler&#45;&gt;ionity</title>
<path fill="none" stroke="black" d="M1212.35,-542.74C1115.63,-639.46 570.14,-1184.95 445.73,-1309.35"/>
<polygon fill="black" stroke="black" points="443.08,-1307.06 438.48,-1316.6 448.03,-1312 443.08,-1307.06"/>
</g>
<!-- bmw -->
<g id="node34" class="node">
<title>bmw</title>
<polygon fill="lightblue" stroke="black" points="83.33,-1410.03 41.78,-1422.46 0.22,-1410.03 0.26,-1389.9 83.29,-1389.9 83.33,-1410.03"/>
<text text-anchor="middle" x="41.78" y="-1400.76" font-family="Times,serif" font-size="14.00">BMW</text>
</g>
<!-- bmw&#45;&gt;ionity -->
<g id="edge35" class="edge">
<title>bmw&#45;&gt;ionity</title>
<path fill="none" stroke="black" d="M83.39,-1396.79C156.18,-1383.36 305.82,-1355.76 378.72,-1342.31"/>
<polygon fill="black" stroke="black" points="379.7,-1345.69 388.9,-1340.43 378.43,-1338.8 379.7,-1345.69"/>
</g>
<!-- mcd -->
<g id="node35" class="node">
<title>mcd</title>
<ellipse fill="none" stroke="black" cx="1730.71" cy="-1030.79" rx="51.99" ry="18"/>
<text text-anchor="middle" x="1730.71" y="-1027.09" font-family="Times,serif" font-size="14.00">McDonalds</text>
</g>
<!-- mcd&#45;&gt;recharge -->
<g id="edge29" class="edge">
<title>mcd&#45;&gt;recharge</title>
<path fill="none" stroke="black" d="M1678.91,-1032.93C1644.97,-1034.33 1600.99,-1036.14 1568.27,-1037.49"/>
<polygon fill="black" stroke="black" points="1567.92,-1034 1558.07,-1037.91 1568.21,-1040.99 1567.92,-1034"/>
</g>
<!-- max -->
<g id="node36" class="node">
<title>max</title>
<ellipse fill="none" stroke="black" cx="1213.16" cy="-798.74" rx="31.7" ry="18"/>
<text text-anchor="middle" x="1213.16" y="-795.04" font-family="Times,serif" font-size="14.00">MAX</text>
</g>
<!-- max&#45;&gt;incharge -->
<g id="edge36" class="edge">
<title>max&#45;&gt;incharge</title>
<path fill="none" stroke="black" d="M1209.55,-816.79C1203.57,-846.66 1191.57,-906.62 1184.47,-942.14"/>
<polygon fill="black" stroke="black" points="1180.96,-941.83 1182.43,-952.32 1187.82,-943.21 1180.96,-941.83"/>
</g>
<!-- okq8&#45;&gt;virta -->
<g id="edge24" class="edge">
<title>okq8&#45;&gt;virta</title>
<path fill="none" stroke="black" d="M756.48,-221.38C735.47,-275.12 672.87,-435.26 647.48,-500.21"/>
<polygon fill="black" stroke="black" points="644.11,-499.2 643.73,-509.79 650.63,-501.75 644.11,-499.2"/>
</g>
<!-- st1 -->
<g id="node38" class="node">
<title>st1</title>
<ellipse fill="yellow" stroke="black" cx="1718.1" cy="-1181.03" rx="27" ry="18"/>
<text text-anchor="middle" x="1718.1" y="-1177.33" font-family="Times,serif" font-size="14.00">ST1</text>
</g>
<!-- st1&#45;&gt;recharge -->
<g id="edge28" class="edge">
<title>st1&#45;&gt;recharge</title>
<path fill="none" stroke="black" d="M1699.68,-1167.71C1666.63,-1143.8 1596.85,-1093.34 1555.33,-1063.31"/>
<polygon fill="black" stroke="black" points="1557.33,-1060.43 1547.17,-1057.41 1553.23,-1066.1 1557.33,-1060.43"/>
</g>
<!-- preem -->
<g id="node39" class="node">
<title>preem</title>
<ellipse fill="yellow" stroke="black" cx="1683.83" cy="-1309.17" rx="33.6" ry="18"/>
<text text-anchor="middle" x="1683.83" y="-1305.47" font-family="Times,serif" font-size="14.00">Preem</text>
</g>
<!-- preem&#45;&gt;recharge -->
<g id="edge27" class="edge">
<title>preem&#45;&gt;recharge</title>
<path fill="none" stroke="black" d="M1673.47,-1291.89C1646.09,-1246.15 1571.56,-1121.71 1538.47,-1066.45"/>
<polygon fill="black" stroke="black" points="1541.3,-1064.37 1533.16,-1057.58 1535.29,-1067.96 1541.3,-1064.37"/>
</g>
<!-- tovek -->
<g id="node40" class="node">
<title>tovek</title>
<ellipse fill="none" stroke="black" cx="1013.27" cy="-71.36" rx="49.29" ry="18"/>
<text text-anchor="middle" x="1013.27" y="-67.66" font-family="Times,serif" font-size="14.00">Toveks Bil</text>
</g>
<!-- tovek&#45;&gt;virta -->
<g id="edge25" class="edge">
<title>tovek&#45;&gt;virta</title>
<path fill="none" stroke="black" d="M998.96,-88.71C941.48,-158.4 727.11,-418.3 658.13,-501.94"/>
<polygon fill="black" stroke="black" points="655.39,-499.75 651.73,-509.69 660.79,-504.21 655.39,-499.75"/>
</g>
<!-- polestar -->
<g id="node41" class="node">
<title>polestar</title>
<ellipse fill="lightblue" stroke="black" cx="931.82" cy="-1747.01" rx="38.99" ry="18"/>
<text text-anchor="middle" x="931.82" y="-1743.31" font-family="Times,serif" font-size="14.00">Polestar</text>
</g>
<!-- polestar&#45;&gt;plugsurfing -->
<g id="edge13" class="edge">
<title>polestar&#45;&gt;plugsurfing</title>
<path fill="none" stroke="black" d="M931.82,-1728.96C931.82,-1710.09 931.82,-1680.22 931.82,-1658.19"/>
<polygon fill="black" stroke="black" points="935.32,-1658.09 931.82,-1648.09 928.32,-1658.09 935.32,-1658.09"/>
</g>
<!-- porsche -->
<g id="node42" class="node">
<title>porsche</title>
<polygon fill="lightblue" stroke="black" points="539.13,-744.16 479.81,-762.16 361.15,-762.16 301.82,-744.16 361.15,-726.16 479.81,-726.16 539.13,-744.16"/>
<text text-anchor="middle" x="420.48" y="-740.46" font-family="Times,serif" font-size="14.00">Porsche Charging Service</text>
</g>
<!-- porsche&#45;&gt;mer -->
<g id="edge44" class="edge">
<title>porsche&#45;&gt;mer</title>
<path fill="none" stroke="black" d="M425.4,-762.53C453.6,-867.78 594.69,-1394.32 629.04,-1522.54"/>
<polygon fill="black" stroke="black" points="625.71,-1523.64 631.68,-1532.39 632.47,-1521.82 625.71,-1523.64"/>
</g>
<!-- porsche&#45;&gt;virta -->
<g id="edge43" class="edge">
<title>porsche&#45;&gt;virta</title>
<path fill="none" stroke="black" d="M438.53,-726.11C476.99,-687.65 567.07,-597.57 611.25,-553.39"/>
<polygon fill="black" stroke="black" points="613.84,-555.75 618.44,-546.2 608.89,-550.8 613.84,-555.75"/>
</g>
<!-- porsche&#45;&gt;vw -->
<g id="edge42" class="edge">
<title>porsche&#45;&gt;vw</title>
<path fill="none" stroke="black" d="M415.65,-762.19C402.04,-812.98 363.35,-957.35 347.88,-1015.09"/>
<polygon fill="black" stroke="black" points="344.48,-1014.25 345.28,-1024.82 351.25,-1016.06 344.48,-1014.25"/>
</g>
<!-- elli -->
<g id="node43" class="node">
<title>elli</title>
<polygon fill="lightblue" stroke="black" points="1500.73,-1334.61 1471.94,-1352.61 1414.36,-1352.61 1385.58,-1334.61 1414.36,-1316.61 1471.94,-1316.61 1500.73,-1334.61"/>
<text text-anchor="middle" x="1443.15" y="-1330.91" font-family="Times,serif" font-size="14.00">We Charge</text>
</g>
<!-- elli&#45;&gt;ionity -->
<g id="edge39" class="edge">
<title>elli&#45;&gt;ionity</title>
<path fill="none" stroke="black" d="M1385.24,-1334.61C1199.78,-1334.61 623.3,-1334.61 462.5,-1334.61"/>
<polygon fill="black" stroke="black" points="462.09,-1331.11 452.09,-1334.61 462.09,-1338.11 462.09,-1331.11"/>
</g>
<!-- elli&#45;&gt;recharge -->
<g id="edge38" class="edge">
<title>elli&#45;&gt;recharge</title>
<path fill="none" stroke="black" d="M1447.98,-1316.58C1461.3,-1266.86 1498.65,-1127.49 1514.73,-1067.46"/>
<polygon fill="black" stroke="black" points="1518.18,-1068.11 1517.39,-1057.55 1511.42,-1066.3 1518.18,-1068.11"/>
</g>
<!-- mercedes -->
<g id="node44" class="node">
<title>mercedes</title>
<polygon fill="lightblue" stroke="black" points="1544.28,-744.16 1493.72,-762.16 1392.59,-762.16 1342.02,-744.16 1392.59,-726.16 1493.72,-726.16 1544.28,-744.16"/>
<text text-anchor="middle" x="1443.15" y="-740.46" font-family="Times,serif" font-size="14.00">Mercedes Me Charge</text>
</g>
<!-- mercedes&#45;&gt;recharge -->
<g id="edge40" class="edge">
<title>mercedes&#45;&gt;recharge</title>
<path fill="none" stroke="black" d="M1447.98,-762.19C1461.3,-811.91 1498.65,-951.28 1514.73,-1011.31"/>
<polygon fill="black" stroke="black" points="1511.42,-1012.47 1517.39,-1021.22 1518.18,-1010.66 1511.42,-1012.47"/>
</g>
<!-- mercedes&#45;&gt;daimler -->
<g id="edge41" class="edge">
<title>mercedes&#45;&gt;daimler</title>
<path fill="none" stroke="black" d="M1425.1,-726.11C1385.57,-686.58 1291.51,-592.53 1248.8,-549.81"/>
<polygon fill="black" stroke="black" points="1251.23,-547.3 1241.69,-542.7 1246.28,-552.25 1251.23,-547.3"/>
</g>
<!-- newmotion -->
<g id="node45" class="node">
<title>newmotion</title>
<polygon fill="yellow" stroke="black" points="1678.6,-1470.43 1641.55,-1488.43 1567.45,-1488.43 1530.4,-1470.43 1567.45,-1452.43 1641.55,-1452.43 1678.6,-1470.43"/>
<text text-anchor="middle" x="1604.5" y="-1466.73" font-family="Times,serif" font-size="14.00">Shell Recharge</text>
</g>
<!-- newmotion&#45;&gt;recharge -->
<g id="edge37" class="edge">
<title>newmotion&#45;&gt;recharge</title>
<path fill="none" stroke="black" d="M1601.02,-1452.19C1588.14,-1384.71 1543.17,-1149 1527.61,-1067.42"/>
<polygon fill="black" stroke="black" points="1531.01,-1066.56 1525.69,-1057.4 1524.13,-1067.87 1531.01,-1066.56"/>
</g>
<!-- easypark -->
<g id="node46" class="node">
<title>easypark</title>
<ellipse fill="none" stroke="black" cx="1227.04" cy="-1550.72" rx="44.39" ry="18"/>
<text text-anchor="middle" x="1227.04" y="-1547.02" font-family="Times,serif" font-size="14.00">EasyPark</text>
</g>
<!-- easypark&#45;&gt;recharge -->
<g id="edge30" class="edge">
<title>easypark&#45;&gt;recharge</title>
<path fill="none" stroke="black" d="M1237.2,-1533.12C1281.01,-1457.23 1453.95,-1157.7 1506.82,-1066.12"/>
<polygon fill="black" stroke="black" points="1509.86,-1067.85 1511.83,-1057.44 1503.8,-1064.35 1509.86,-1067.85"/>
</g>
<!-- easypark&#45;&gt;mer -->
<g id="edge31" class="edge">
<title>easypark&#45;&gt;mer</title>
<path fill="none" stroke="black" d="M1182.66,-1550.72C1070.52,-1550.72 777.34,-1550.72 673.61,-1550.72"/>
<polygon fill="black" stroke="black" points="673.61,-1547.22 663.61,-1550.72 673.61,-1554.22 673.61,-1547.22"/>
</g>
</g>
</svg>
